<?xml version="1.0" encoding="utf-8" ?>
<svg xmlns="http://www.w3.org/2000/svg" xmlns:ev="http://www.w3.org/2001/xml-events" xmlns:xlink="http://www.w3.org/1999/xlink" baseProfile="full" height="132.06320863112762cm" version="1.1" viewBox="-64.17083146746963 -151.6638 262.6833258698785 132.06320863112762" width="262.6833258698785cm">
  <defs/>
  <path d="M 18.21927431289944,-145.6638 L 18.21927431289944,-149.6638 L 0.0,-149.6638 L 0.0,-145.6638 L 18.21927431289944,-145.6638" fill="rgb(227,175,186)" stroke="rgb(51,51,51)" stroke-width="0.2"/>
  <path d="M -18.21927431289944,-145.6638 L 0.0,-145.6638 L 0.0,-149.6638 L -18.21927431289944,-149.6638 L -18.21927431289944,-145.6638" fill="rgb(227,175,186)" stroke="rgb(51,51,51)" stroke-width="0.2"/>
  <path d="M 50.5864817575072,-112.02671142812085 L 21.450234444227714,-141.65838050293985 C 12.646724831086068,-132.96209449433766 14.750923874793841,-125.88848853168977 11.006891968082755,-117.98806004021186 L 33.94261528852813,-95.66111931567802 L 50.5864817575072,-112.02671142812085" fill="rgb(227,175,186)" stroke="rgb(51,51,51)" stroke-width="0.2"/>
  <path d="M -50.5864817575072,-112.02671142812085 L -33.94261528852813,-95.66111931567802 L -11.006891968082755,-117.98806004021186 C -14.750923874793841,-125.88848853168977 -12.646724831086068,-132.96209449433766 -21.450234444227714,-141.65838050293985 L -50.5864817575072,-112.02671142812085" fill="rgb(227,175,186)" stroke="rgb(51,51,51)" stroke-width="0.2"/>
  <path d="M 62.170831467469625,-103.20395203873824 L 51.98872347573336,-110.60062652052727 L 46.01326911739238,-104.72507777724745 L 53.237231359245904,-94.41971577132048 L 62.170831467469625,-103.20395203873824" fill="rgb(227,175,186)" stroke="rgb(51,51,51)" stroke-width="0.2"/>
  <path d="M -62.170831467469625,-103.20395203873824 L -53.23723135924591,-94.41971577132048 L -46.01326911739238,-104.72507777724744 L -51.98872347573336,-110.60062652052727 L -62.170831467469625,-103.20395203873824" fill="rgb(227,175,186)" stroke="rgb(51,51,51)" stroke-width="0.2"/>
  <path d="M 31.908157291835543,-23.94896136887239 Q 30.704080925227057,-60.2945241921428 30.70407864591777,-72.39300135495829 Q 30.70406023372943,-84.16430807700478 28.975928645917772,-95.87670135495829 L 14.728110026421167,-95.87670135495829 L 6.376928645917776,-95.87670135495829 L 6.376928645917776,-82.96066635495828 Q 6.376892465390874,-63.57936845847753 0.2951411459177784,-63.57937135495828 Q 1.9346774646003553,-51.7152509785934 1.0910625000000067,-23.94896136887239 L 31.908157291835543,-23.94896136887239" fill="rgb(227,175,186)" stroke="rgb(51,51,51)" stroke-width="0.2"/>
  <path d="M -31.908157291835543,-23.94896136887239 L -1.0910625000000067,-23.94896136887239 Q -1.9346774646003553,-51.7152509785934 -0.2951411459177784,-63.57937135495828 Q -6.376892465390874,-63.57936845847753 -6.376928645917776,-82.96066635495828 L -6.376928645917776,-95.87670135495829 L -14.90552753948435,-95.87670135495829 L -28.975928645917772,-95.87670135495829 Q -30.70406023372943,-84.16430807700478 -30.70407864591777,-72.39300135495829 Q -30.704080925227057,-60.2945241921428 -31.908157291835543,-23.94896136887239" fill="rgb(227,175,186)" stroke="rgb(51,51,51)" stroke-width="0.2"/>
  <path d="M 0.0,-97.85775552378857 L 8.473150131373654,-97.85775552378857 L 9.634250131373655,-110.61550785797345 L 10.795350131373658,-97.85775552378857 L 24.921200000000002,-97.85775552378857 L 26.082300000000004,-112.09162216584856 L 13.003468750843743,-113.92612216584855 L 26.082300000000004,-115.76062216584856 L 25.526504697893355,-117.36401602344002 C 16.390844412678476,-118.6942089634523 16.98250668416067,-126.28614968311888 17.066363976946448,-138.53124518797893 C 17.06715515280044,-138.6467750789567 17.067901126271703,-138.76271917163058 17.068593301490637,-138.87907611503982 L 10.818799919390678,-141.36335338572718 A 10.877711079906854,10.877711079906854 0.0 0,1 0.0,-129.3550819836256 L 0.0,-97.85775552378857" fill="rgb(227,175,186)" stroke="rgb(51,51,51)" stroke-width="0.2"/>
  <path d="M 0.0,-97.85775552378857 L 0.0,-129.3550819836256 A 10.877711079906854,10.877711079906854 0.0 0,1 -10.818799919390678,-141.36335338572718 L -17.068593301490637,-138.87907611503982 C -17.067901126271703,-138.76271917163058 -17.06715515280044,-138.6467750789567 -17.066363976946448,-138.53124518797893 C -16.982506684160672,-126.28614968311888 -16.390844412678472,-118.6942089634523 -25.526504697893355,-117.36401602344002 L -26.082300000000004,-115.76062216584856 L -13.003468750843743,-113.92612216584855 L -26.082300000000004,-112.09162216584856 L -24.921200000000002,-97.85775552378857 L -10.795350131373658,-97.85775552378857 L -9.634250131373655,-110.61550785797345 L -8.473150131373654,-97.85775552378857 L 0.0,-97.85775552378857" fill="rgb(227,175,186)" stroke="rgb(51,51,51)" stroke-width="0.2"/>
  <path d="M 134.34166293493925,-104.26453884846745 L 134.34166293493925,-136.55712551606445 A 13.896131572432509,13.896131572432509 0.0 0,0 145.16046285432992,-141.73224562293012 L 151.57006293493924,-139.18444522773933 C 150.5718759166193,-127.10498518193941 149.3275119028793,-119.65901965445948 158.17971293493926,-117.66938513613951 L 158.17971293493926,-116.12951385279467 L 157.4680212682726,-101.89564718612802 Q 153.37352839466752,-102.77205311148185 149.25838045969672,-103.3406469073334 L 149.6244445603416,-114.13808342153328 L 147.49117600389587,-103.54715317579763 Q 145.22359445005577,-103.795296786474 142.95142926331283,-103.95760755331008 L 142.82859639646122,-115.96102357914366 L 141.175836432828,-104.07130244258926 Q 137.76390927657448,-104.26453888028198 134.34166293493925,-104.26453884846745" fill="rgb(227,175,186)" stroke="rgb(51,51,51)" stroke-width="0.2"/>
  <path d="M 134.34166293493925,-104.26453884846745 Q 130.91941659330402,-104.26453888028198 127.50748943705051,-104.07130244258926 L 125.85472947341728,-115.96102357914366 L 125.73189660656567,-103.95760755331008 Q 123.45973141982275,-103.795296786474 121.19214986598263,-103.54715317579763 L 119.05888130953691,-114.13808342153328 L 119.42494541018178,-103.3406469073334 Q 115.309797475211,-102.77205311148185 111.21530460160592,-101.89564718612802 L 110.50361293493926,-116.12951385279467 L 110.50361293493926,-117.66938513613951 C 119.3558139669992,-119.65901965445947 118.11144995325921,-127.10498518193941 117.11326293493926,-139.18444522773933 L 123.52286301554857,-141.73224562293012 A 13.896131572432509,13.896131572432509 0.0 0,0 134.34166293493925,-136.55712551606445 L 134.34166293493925,-104.26453884846745" fill="rgb(227,175,186)" stroke="rgb(51,51,51)" stroke-width="0.2"/>
  <path d="M 171.2498202267748,-21.600591368872387 L 135.37345607699572,-21.600591368872387 Q 136.21707104160055,-49.36688097874155 134.5775347229135,-61.23100135495828 Q 142.63382268472114,-61.23100457626298 142.63389158085704,-81.66906285495828 L 142.63389158085704,-95.87670135495829 L 149.47171651505965,-95.87670135495829 L 150.87537256143492,-75.2587701392953 L 152.27902860781015,-95.87670135495829 L 156.8375786882146,-95.87670135495829 L 158.24123473458982,-77.33065289684068 L 159.64489078096506,-95.87670135495829 L 167.81641576635798,-95.87670135495829 Q 170.0457413754961,-83.00599502039142 170.04574158085703,-70.04463135495828 Q 170.0457438601663,-57.9461541921428 171.2498202267748,-21.600591368872387" fill="rgb(227,175,186)" stroke="rgb(51,51,51)" stroke-width="0.2"/>
  <path d="M 97.4335056431037,-21.600591368872387 Q 98.63758200971219,-57.9461541921428 98.63758428902148,-70.04463135495828 Q 98.6375844943824,-83.00599502039142 100.86691010352054,-95.87670135495829 L 109.03843508891345,-95.87670135495829 L 110.44209113528868,-77.33065289684068 L 111.84574718166391,-95.87670135495829 L 116.40429726206837,-95.87670135495829 L 117.8079533084436,-75.2587701392953 L 119.21160935481883,-95.87670135495829 L 126.04943428902148,-95.87670135495829 L 126.04943428902148,-81.66906285495828 Q 126.04950318515736,-61.23100457626298 134.105791146965,-61.23100135495828 Q 132.46625482827795,-49.36688097874154 133.30986979288278,-21.600591368872387 L 97.4335056431037,-21.600591368872387" fill="rgb(227,175,186)" stroke="rgb(51,51,51)" stroke-width="0.2"/>
  <path d="M 184.92814469244644,-112.02671142812085 L 168.2842782234674,-95.66111931567804 L 145.34855490302203,-117.98806004021188 C 149.0538936520115,-125.79553718502632 146.99997234708027,-132.93871202072123 155.53962141064613,-141.4039267553067 C 155.62387150335954,-141.4897595765728 155.70796273411372,-141.57457254052147 155.79189737916695,-141.65838050293985 L 184.92814469244644,-112.02671142812085" fill="rgb(227,175,186)" stroke="rgb(51,51,51)" stroke-width="0.2"/>
  <path d="M 83.75518117743205,-112.02671142812085 L 112.89142849071153,-141.65838050293985 C 112.97536313576477,-141.57457254052147 113.05945436651898,-141.4897595765728 113.14370445923235,-141.4039267553067 C 121.68335352279823,-132.93871202072123 119.62943221786699,-125.79553718502632 123.33477096685647,-117.98806004021188 L 100.3990476464111,-95.66111931567804 L 83.75518117743205,-112.02671142812085" fill="rgb(227,175,186)" stroke="rgb(51,51,51)" stroke-width="0.2"/>
  <path d="M 196.5124944024089,-103.20395203873824 L 187.57889429418515,-94.41971577132048 L 180.35493205233163,-104.72507777724745 L 186.33038641067262,-110.60062652052727 L 196.5124944024089,-103.20395203873824" fill="rgb(227,175,186)" stroke="rgb(51,51,51)" stroke-width="0.2"/>
  <path d="M 72.17083146746963,-103.20395203873824 L 82.35293945920588,-110.60062652052727 L 88.32839381754687,-104.72507777724744 L 81.10443157569334,-94.41971577132048 L 72.17083146746963,-103.20395203873824" fill="rgb(227,175,186)" stroke="rgb(51,51,51)" stroke-width="0.2"/>
  <path d="M 146.74185122700257,-145.6638 L 134.34166293493925,-145.6638 L 134.34166293493925,-149.6638 L 146.74185122700257,-149.6638 L 146.74185122700257,-145.6638" fill="rgb(227,175,186)" stroke="rgb(51,51,51)" stroke-width="0.2"/>
  <path d="M 121.94147464287593,-145.6638 L 121.94147464287593,-149.6638 L 134.34166293493925,-149.6638 L 134.34166293493925,-145.6638 L 121.94147464287593,-145.6638" fill="rgb(227,175,186)" stroke="rgb(51,51,51)" stroke-width="0.2"/>
</svg>
