<?xml version="1.0" encoding="utf-8" ?>
<svg xmlns="http://www.w3.org/2000/svg" xmlns:ev="http://www.w3.org/2001/xml-events" xmlns:xlink="http://www.w3.org/1999/xlink" baseProfile="full" height="132.06320863112762cm" version="1.1" viewBox="-39.50501884171889 -151.6638 164.02007536687557 132.06320863112762" width="164.02007536687557cm">
  <defs/>
  <path d="M 18.21927431289944,-145.6638 L 18.21927431289944,-149.6638 L 0.0,-149.6638 L 0.0,-145.6638 L 18.21927431289944,-145.6638" fill="rgb(227,175,186)" stroke="rgb(51,51,51)" stroke-width="0.2"/>
  <path d="M -18.21927431289944,-145.6638 L 0.0,-145.6638 L 0.0,-149.6638 L -18.21927431289944,-149.6638 L -18.21927431289944,-145.6638" fill="rgb(227,175,186)" stroke="rgb(51,51,51)" stroke-width="0.2"/>
  <path d="M 31.881482516168468,-129.09816899546587 L 21.259448680620125,-139.90081588860386 C 11.034665613671935,-129.84259314113305 14.323914609831705,-123.25775527190096 10.167440727260876,-114.75937671260192 L 14.203387371395044,-111.71563982151822 L 31.881482516168468,-129.09816899546587" fill="rgb(227,175,186)" stroke="rgb(51,51,51)" stroke-width="0.2"/>
  <path d="M -31.881482516168468,-129.09816899546587 L -14.203387371395042,-111.71563982151822 L -10.167440727260875,-114.75937671260192 C -14.323914609831704,-123.25775527190096 -11.034665613671933,-129.84259314113305 -21.259448680620125,-139.90081588860386 L -31.881482516168468,-129.09816899546587" fill="rgb(227,175,186)" stroke="rgb(51,51,51)" stroke-width="0.2"/>
  <path d="M 37.50501884171889,-126.36560132813398 L 33.2837242343946,-127.6720840878723 L 27.25167163387934,-121.7408833873125 L 28.486801559286885,-117.4981626292751 L 37.50501884171889,-126.36560132813398" fill="rgb(227,175,186)" stroke="rgb(51,51,51)" stroke-width="0.2"/>
  <path d="M -37.50501884171889,-126.36560132813398 L -28.48680155928689,-117.4981626292751 L -27.251671633879344,-121.7408833873125 L -33.283724234394604,-127.6720840878723 L -37.50501884171889,-126.36560132813398" fill="rgb(227,175,186)" stroke="rgb(51,51,51)" stroke-width="0.2"/>
  <path d="M 31.908157291835543,-23.94896136887239 Q 30.704080925227057,-60.2945241921428 30.70407864591777,-72.39300135495829 Q 30.70406023372943,-84.16430807700478 28.975928645917772,-95.87670135495829 L 14.728110026421167,-95.87670135495829 L 6.376928645917776,-95.87670135495829 L 6.376928645917776,-82.96066635495828 Q 6.376892465390874,-63.57936845847753 0.2951411459177784,-63.57937135495828 Q 1.9346774646003553,-51.7152509785934 1.0910625000000067,-23.94896136887239 L 31.908157291835543,-23.94896136887239" fill="rgb(227,175,186)" stroke="rgb(51,51,51)" stroke-width="0.2"/>
  <path d="M -31.908157291835543,-23.94896136887239 L -1.0910625000000067,-23.94896136887239 Q -1.9346774646003553,-51.7152509785934 -0.2951411459177784,-63.57937135495828 Q -6.376892465390874,-63.57936845847753 -6.376928645917776,-82.96066635495828 L -6.376928645917776,-95.87670135495829 L -14.90552753948435,-95.87670135495829 L -28.975928645917772,-95.87670135495829 Q -30.70406023372943,-84.16430807700478 -30.70407864591777,-72.39300135495829 Q -30.704080925227057,-60.2945241921428 -31.908157291835543,-23.94896136887239" fill="rgb(227,175,186)" stroke="rgb(51,51,51)" stroke-width="0.2"/>
  <path d="M 0.0,-97.85775552378858 L 8.473150131373654,-97.85775552378858 L 9.634250131373655,-110.61550785797347 L 10.795350131373658,-97.85775552378858 L 24.921200000000002,-97.85775552378858 L 26.082300000000004,-112.09162216584858 L 13.003468750843743,-113.92612216584857 L 26.082300000000004,-115.76062216584857 L 26.034325788340276,-115.89902124192287 C 16.303279010684268,-117.34144417721637 16.940472209965648,-125.42057919064584 17.0647587857597,-138.4549354681499 C 17.066101382442834,-138.59573815253606 17.0673841268043,-138.73711907374633 17.068593302489553,-138.87907611215812 L 10.818799919390678,-141.36335338410817 A 10.87771107990685,10.87771107990685 0.0 0,1 0.0,-129.3550819820066 L 0.0,-97.85775552378858" fill="rgb(227,175,186)" stroke="rgb(51,51,51)" stroke-width="0.2"/>
  <path d="M 0.0,-97.85775552378858 L 0.0,-129.3550819820066 A 10.87771107990685,10.87771107990685 0.0 0,1 -10.818799919390678,-141.36335338410817 L -17.068593302489553,-138.87907611215812 C -17.0673841268043,-138.73711907374633 -17.066101382442834,-138.59573815253606 -17.0647587857597,-138.4549354681499 C -16.94047220996565,-125.42057919064584 -16.303279010684268,-117.34144417721637 -26.034325788340276,-115.89902124192287 L -26.082300000000004,-115.76062216584857 L -13.003468750843743,-113.92612216584857 L -26.082300000000004,-112.09162216584858 L -24.921200000000002,-97.85775552378858 L -10.795350131373658,-97.85775552378858 L -9.634250131373655,-110.61550785797347 L -8.473150131373654,-97.85775552378858 L 0.0,-97.85775552378858" fill="rgb(227,175,186)" stroke="rgb(51,51,51)" stroke-width="0.2"/>
  <path d="M 85.01003768343779,-104.26453884846742 L 85.01003768343779,-136.55712510504821 A 13.896131572432509,13.896131572432509 0.0 0,0 95.82883760282847,-141.7322452119139 L 102.23843768343778,-139.18444457043776 C 100.94725170939074,-126.37248713532014 99.48313847885545,-118.48702317424957 108.84808768343778,-116.20438970020253 L 108.84808768343778,-116.12951385279467 L 108.13639601677112,-101.895647186128 Q 104.04190314316604,-102.77205311148182 99.92675520819526,-103.34064690733337 L 100.29281930884012,-114.13808342153327 L 98.15955075239441,-103.54715317579763 Q 95.89196919855429,-103.79529678647398 93.61980401181137,-103.95760755331007 L 93.49697114495976,-115.96102357914364 L 91.84421118132653,-104.07130244258926 Q 88.43228402507303,-104.26453888028196 85.01003768343779,-104.26453884846742" fill="rgb(227,175,186)" stroke="rgb(51,51,51)" stroke-width="0.2"/>
  <path d="M 85.01003768343779,-104.26453884846742 Q 81.58779134180254,-104.26453888028196 78.17586418554905,-104.07130244258926 L 76.52310422191582,-115.96102357914364 L 76.4002713550642,-103.95760755331007 Q 74.12810616832128,-103.79529678647398 71.86052461448116,-103.54715317579763 L 69.72725605803545,-114.13808342153327 L 70.09332015868031,-103.34064690733337 Q 65.97817222370954,-102.77205311148182 61.88367935010446,-101.895647186128 L 61.17198768343779,-116.12951385279467 L 61.17198768343779,-116.20438970020253 C 70.53693688802012,-118.48702317424957 69.07282365748483,-126.37248713532014 67.7816376834378,-139.18444457043776 L 74.1912377640471,-141.7322452119139 A 13.896131572432509,13.896131572432509 0.0 0,0 85.01003768343779,-136.55712510504821 L 85.01003768343779,-104.26453884846742" fill="rgb(227,175,186)" stroke="rgb(51,51,51)" stroke-width="0.2"/>
  <path d="M 121.91819497527334,-21.600591368872387 L 86.04183082549426,-21.600591368872387 Q 86.88544579009908,-49.36688097874155 85.24590947141203,-61.23100135495828 Q 93.30219743321967,-61.23100457626298 93.30226632935556,-81.66906285495828 L 93.30226632935556,-95.87670135495829 L 100.1400912635582,-95.87670135495829 L 101.54374730993344,-75.2587701392953 L 102.94740335630867,-95.87670135495829 L 107.50595343671313,-95.87670135495829 L 108.90960948308836,-77.33065289684068 L 110.31326552946359,-95.87670135495829 L 118.4847905148565,-95.87670135495829 Q 120.71411612399464,-83.00599502039142 120.71411632935556,-70.04463135495828 Q 120.71411860866485,-57.9461541921428 121.91819497527334,-21.600591368872387" fill="rgb(227,175,186)" stroke="rgb(51,51,51)" stroke-width="0.2"/>
  <path d="M 48.101880391602236,-21.600591368872387 Q 49.305956758210726,-57.9461541921428 49.30595903752001,-70.04463135495828 Q 49.30595924288094,-83.00599502039142 51.535284852019075,-95.87670135495829 L 59.70680983741198,-95.87670135495829 L 61.110465883787214,-77.33065289684068 L 62.514121930162446,-95.87670135495829 L 67.0726720105669,-95.87670135495829 L 68.47632805694214,-75.2587701392953 L 69.87998410331737,-95.87670135495829 L 76.71780903752001,-95.87670135495829 L 76.71780903752001,-81.66906285495828 Q 76.7178779336559,-61.23100457626298 84.77416589546354,-61.23100135495828 Q 83.13462957677649,-49.36688097874154 83.97824454138132,-21.600591368872387 L 48.101880391602236,-21.600591368872387" fill="rgb(227,175,186)" stroke="rgb(51,51,51)" stroke-width="0.2"/>
  <path d="M 116.89152019960625,-129.09816899546587 L 99.21342505483283,-111.71563982151821 L 95.17747841069865,-114.75937671260192 C 99.18779208110138,-123.18476975205063 96.19094794010903,-129.8791963040988 105.9622770270479,-139.58976875265893 C 106.06504732061457,-139.69483978434326 106.16744853317996,-139.7985149779824 106.26948636405791,-139.90081588860386 L 116.89152019960625,-129.09816899546587" fill="rgb(227,175,186)" stroke="rgb(51,51,51)" stroke-width="0.2"/>
  <path d="M 53.12855516726932,-129.09816899546587 L 63.75058900281766,-139.90081588860386 C 63.85262683369562,-139.7985149779824 63.955028046261006,-139.69483978434326 64.05779833982767,-139.58976875265893 C 73.82912742676655,-129.8791963040988 70.8322832857742,-123.18476975205063 74.84259695617692,-114.75937671260192 L 70.80665031204275,-111.71563982151821 L 53.12855516726932,-129.09816899546587" fill="rgb(227,175,186)" stroke="rgb(51,51,51)" stroke-width="0.2"/>
  <path d="M 122.51505652515668,-126.36560132813398 L 113.49683924272468,-117.4981626292751 L 112.26170931731713,-121.7408833873125 L 118.29376191783238,-127.6720840878723 L 122.51505652515668,-126.36560132813398" fill="rgb(227,175,186)" stroke="rgb(51,51,51)" stroke-width="0.2"/>
  <path d="M 47.50501884171889,-126.36560132813398 L 51.72631344904318,-127.6720840878723 L 57.75836604955845,-121.7408833873125 L 56.5232361241509,-117.4981626292751 L 47.50501884171889,-126.36560132813398" fill="rgb(227,175,186)" stroke="rgb(51,51,51)" stroke-width="0.2"/>
  <path d="M 97.4102259755011,-145.6638 L 85.01003768343779,-145.6638 L 85.01003768343779,-149.6638 L 97.4102259755011,-149.6638 L 97.4102259755011,-145.6638" fill="rgb(227,175,186)" stroke="rgb(51,51,51)" stroke-width="0.2"/>
  <path d="M 72.60984939137447,-145.6638 L 72.60984939137447,-149.6638 L 85.01003768343779,-149.6638 L 85.01003768343779,-145.6638 L 72.60984939137447,-145.6638" fill="rgb(227,175,186)" stroke="rgb(51,51,51)" stroke-width="0.2"/>
</svg>
