<?xml version="1.0" encoding="utf-8" ?>
<svg xmlns="http://www.w3.org/2000/svg" xmlns:ev="http://www.w3.org/2001/xml-events" xmlns:xlink="http://www.w3.org/1999/xlink" baseProfile="full" height="121.7271608744707cm" version="1.1" viewBox="-42.000229568958275 -192.12016222942898 163.2708243914604 121.7271608744707" width="163.2708243914604cm">
  <defs/>
  <path d="M -40.000229568958275,-72.39300135495829 L 40.000229568958275,-72.39300135495829 L 40.000229568958275,-95.87670135495829 L 14.781590884204846,-95.87670135495829 L -0.1570144973689409,-95.87670135495829 L -15.095619878942728,-95.87670135495829 L -40.000229568958275,-95.87670135495829 L -40.000229568958275,-72.39300135495829" fill="rgb(227,175,186)" stroke="rgb(51,51,51)" stroke-width="0.2"/>
  <path d="M 0.0,-97.85775552378855 L 8.473150131373654,-97.85775552378855 L 9.634250131373655,-110.61550785797344 L 10.795350131373658,-97.85775552378855 L 24.921200000000002,-97.85775552378855 L 26.082300000000004,-112.09162216584855 L 13.003468750843743,-113.92612216584854 L 26.082300000000004,-115.76062216584855 L 23.455868957885908,-123.33751852382674 L 17.06859341090598,-123.33751852382674 L 17.06859341090598,-138.87907579939144 L 10.818799919390678,-141.3633532128897 A 14.382023852874196,14.382023852874196 0.0 0,1 0.0,-117.50524480948332 L 0.0,-97.85775552378855" fill="rgb(227,175,186)" stroke="rgb(51,51,51)" stroke-width="0.2"/>
  <path d="M 0.0,-97.85775552378855 L 0.0,-117.50524480948332 A 14.382023852874196,14.382023852874196 0.0 0,1 -10.818799919390678,-141.3633532128897 L -17.06859341090598,-138.87907579939144 L -17.06859341090598,-123.33751852382674 L -23.455868957885908,-123.33751852382674 L -26.082300000000004,-115.76062216584855 L -13.003468750843743,-113.92612216584854 L -26.082300000000004,-112.09162216584855 L -24.921200000000002,-97.85775552378855 L -10.795350131373658,-97.85775552378855 L -9.634250131373655,-110.61550785797344 L -8.473150131373654,-97.85775552378855 L 0.0,-97.85775552378855" fill="rgb(227,175,186)" stroke="rgb(51,51,51)" stroke-width="0.2"/>
  <path d="M 84.00045913791655,-104.26453884846742 L 84.00045913791655,-136.55712511885554 A 13.896131572432509,13.896131572432509 0.0 0,0 94.81925905730724,-141.73224522572121 L 101.22885913791654,-139.1844445622993 L 101.22885913791654,-123.64288728673459 L 107.83850913791655,-123.64288728673459 L 107.83850913791655,-116.12951385279467 L 107.12681747124988,-101.895647186128 Q 103.0323245976448,-102.77205311148182 98.91717666267402,-103.34064690733337 L 99.28324076331889,-114.13808342153327 L 97.14997220687317,-103.54715317579763 Q 94.88239065303306,-103.79529678647398 92.61022546629013,-103.95760755331007 L 92.48739259943852,-115.96102357914364 L 90.83463263580529,-104.07130244258926 Q 87.4227054795518,-104.26453888028196 84.00045913791655,-104.26453884846742" fill="rgb(227,175,186)" stroke="rgb(51,51,51)" stroke-width="0.2"/>
  <path d="M 84.00045913791655,-104.26453884846742 Q 80.5782127962813,-104.26453888028196 77.16628564002781,-104.07130244258926 L 75.51352567639458,-115.96102357914364 L 75.39069280954297,-103.95760755331007 Q 73.11852762280004,-103.79529678647398 70.85094606895993,-103.54715317579763 L 68.71767751251421,-114.13808342153327 L 69.08374161315908,-103.34064690733337 Q 64.9685936781883,-102.77205311148182 60.87410080458322,-101.895647186128 L 60.162409137916555,-116.12951385279467 L 60.162409137916555,-123.64288728673459 L 66.77205913791656,-123.64288728673459 L 66.77205913791656,-139.1844445622993 L 73.18165921852587,-141.73224522572121 A 13.896131572432509,13.896131572432509 0.0 0,0 84.00045913791655,-136.55712511885554 L 84.00045913791655,-104.26453884846742" fill="rgb(227,175,186)" stroke="rgb(51,51,51)" stroke-width="0.2"/>
  <path d="M 50.000229568958275,-72.39300135495829 L 50.000229568958275,-95.87670135495829 L 64.70006569928009,-95.87670135495829 L 72.73699885280105,-95.87670135495829 L 84.79242669309913,-95.87670135495829 L 96.84785453339721,-95.87670135495829 L 104.88478768691817,-95.87670135495829 L 119.27059482250213,-95.87670135495829 L 119.27059482250213,-72.39300135495829 L 50.000229568958275,-72.39300135495829" fill="rgb(227,175,186)" stroke="rgb(51,51,51)" stroke-width="0.2"/>
  <path d="M 95.6380589766979,-150.31355978626866 Q 105.15531227566302,-188.65012169243133 82.6554990734291,-190.12016222942898 L 71.83669915403841,-190.12016222942898 L 73.43292343243242,-130.36438392751427 C 88.52717235375113,-130.89943789639204 69.60973546433544,-155.01022077772382 84.71630980582945,-155.53792516481687 C 89.80289401921932,-155.3757853188154 90.54972210641188,-150.47390488945885 95.6380589766979,-150.31355978626866" fill="rgb(227,175,186)" stroke="rgb(51,51,51)" stroke-width="0.2"/>
  <path d="M 72.3628592991352,-150.31355978626866 C 77.45119616942122,-150.47390488945885 78.19802425661378,-155.3757853188154 83.28460847000365,-155.53792516481687 C 98.39118281149767,-155.0102207777238 79.47374592208197,-130.89943789639204 94.56799484340068,-130.36438392751427 L 96.16421912179469,-190.12016222942898 L 85.345419202404,-190.12016222942898 Q 62.84560600017008,-188.65012169243133 72.3628592991352,-150.31355978626866" fill="rgb(227,175,186)" stroke="rgb(51,51,51)" stroke-width="0.2"/>
</svg>
