<?xml version="1.0" encoding="utf-8" ?>
<svg xmlns="http://www.w3.org/2000/svg" xmlns:ev="http://www.w3.org/2001/xml-events" xmlns:xlink="http://www.w3.org/1999/xlink" baseProfile="full" height="115.47635038402967cm" version="1.1" viewBox="-33.47961035884321 -143.36335353632882 159.91844143537284 115.47635038402967" width="159.91844143537284cm">
  <defs/>
  <path d="M 21.823807761175104,-29.887003152299144 L 21.823807761175104,-44.38609955898784 L 11.263705360380698,-44.38609955898784 L 8.111452141156802,-44.38609955898784 L 8.111452141156802,-29.887003152299144 L 21.823807761175104,-29.887003152299144" fill="rgb(227,175,186)" stroke="rgb(51,51,51)" stroke-width="0.2"/>
  <path d="M -21.823807761175104,-29.887003152299144 L -8.111452141156802,-29.887003152299144 L -8.111452141156802,-44.38609955898784 L -11.263705360380698,-44.38609955898784 L -21.823807761175104,-44.38609955898784 L -21.823807761175104,-29.887003152299144" fill="rgb(227,175,186)" stroke="rgb(51,51,51)" stroke-width="0.2"/>
  <path d="M 25.459220717686414,-50.29022198659204 Q 31.479606203514223,-62.524956954555265 31.479610358843207,-67.34798198659203 Q 31.47959618145821,-76.4118879380277 30.14893489180505,-85.430430538676 L 7.152460358843211,-85.430430538676 L 7.152460358843211,-75.48508383502983 Q 7.152464187755566,-58.534352405792475 1.0706728588432135,-58.53435198659204 Q 4.30990551610946,-56.83735703895085 9.091062500000007,-50.29022198659204 L 25.459220717686414,-50.29022198659204" fill="rgb(227,175,186)" stroke="rgb(51,51,51)" stroke-width="0.2"/>
  <path d="M -25.459220717686414,-50.29022198659204 L -9.091062500000007,-50.29022198659204 Q -4.309905516109456,-56.83735703895085 -1.0706728588432135,-58.53435198659204 Q -7.1524641877555695,-58.534352405792475 -7.152460358843211,-75.48508383502983 L -7.152460358843211,-85.430430538676 L -30.14893489180505,-85.430430538676 Q -31.479596181458213,-76.4118879380277 -31.479610358843207,-67.34798198659203 Q -31.479606203514223,-62.524956954555265 -25.459220717686414,-50.29022198659204" fill="rgb(227,175,186)" stroke="rgb(51,51,51)" stroke-width="0.2"/>
  <path d="M 0.0,-90.36352425731253 L 29.994644378149513,-90.36352425731253 L 29.994644378149513,-109.00182743777522 C 17.006591415343586,-110.49638709809491 17.648776996402745,-121.35544154382535 17.228400000000004,-138.81555340113528 L 10.81879991939068,-141.3633534092106 Q 15.879266662417477,-111.86380037397032 0.0,-114.75407295229407 L 0.0,-90.36352425731253" fill="rgb(227,175,186)" stroke="rgb(51,51,51)" stroke-width="0.2"/>
  <path d="M 0.0,-90.36352425731253 L 0.0,-114.75407295229407 Q -15.879266662417477,-111.86380037397032 -10.818799919390681,-141.3633534092106 L -17.228400000000004,-138.81555340113528 C -17.648776996402745,-121.35544154382535 -17.006591415343586,-110.49638709809491 -29.994644378149513,-109.00182743777522 L -29.994644378149513,-90.36352425731253 L 0.0,-90.36352425731253" fill="rgb(227,175,186)" stroke="rgb(51,51,51)" stroke-width="0.2"/>
  <path d="M 82.95922071768642,-90.49733682003948 L 82.95922071768642,-126.51959309210179 A 11.364494094642323,11.364494094642323 0.0 0,0 93.7780206370771,-141.36335353632882 L 100.18762071768643,-138.81555276015865 C 99.31755399084271,-121.87161839214731 97.90110217583567,-111.3996970633908 110.37297764934303,-109.0018267967986 L 110.37297764934303,-90.49733682003948 L 97.5772875538957,-90.49733682003948 L 91.73006091195465,-90.49733682003948 L 82.95922071768642,-90.49733682003948" fill="rgb(227,175,186)" stroke="rgb(51,51,51)" stroke-width="0.2"/>
  <path d="M 82.95922071768642,-90.49733682003948 L 74.1883805234182,-90.49733682003948 L 68.34115388147714,-90.49733682003948 L 55.54546378602982,-90.49733682003948 L 55.54546378602982,-109.0018267967986 C 68.01733925953717,-111.3996970633908 66.60088744453013,-121.87161839214731 65.73082071768641,-138.81555276015865 L 72.14042079829574,-141.36335353632882 A 11.364494094642323,11.364494094642323 0.0 0,0 82.95922071768642,-126.51959309210179 L 82.95922071768642,-90.49733682003948" fill="rgb(227,175,186)" stroke="rgb(51,51,51)" stroke-width="0.2"/>
  <path d="M 118.41844143537284,-48.48197713138363 L 97.16429087820055,-48.48197713138363 L 92.27829853871465,-48.48197713138363 Q 87.49714155418096,-55.02911218462427 84.25790889755785,-56.72610713138363 Q 97.02698226211139,-56.7261039056636 97.02698107652964,-74.4905491646652 L 97.02698107652964,-85.43043053867599 L 103.86480607671405,-85.43043053867599 L 104.94562120565037,-69.55462389587132 L 106.02643633458669,-85.43043053867599 L 110.5849862144645,-85.43043053867599 L 111.66580134340082,-71.14997357966324 L 112.74661647233714,-85.43043053867599 L 122.72225024188637,-85.43043053867599 Q 124.43883091840172,-75.51998690529567 124.43883107652962,-65.53973713138363 Q 124.43882692120064,-60.716712099346864 118.41844143537284,-48.48197713138363" fill="rgb(227,175,186)" stroke="rgb(51,51,51)" stroke-width="0.2"/>
  <path d="M 47.5,-48.48197713138363 Q 41.47961451417219,-60.716712099346864 41.47961035884321,-65.53973713138363 Q 41.47961051697112,-75.51998690529567 43.19619119348648,-85.43043053867599 L 53.17182496303571,-85.43043053867599 L 54.252640091972026,-71.14997357966324 L 55.33345522090834,-85.43043053867599 L 59.89200510078616,-85.43043053867599 L 60.97282022972247,-69.55462389587132 L 62.05363535865879,-85.43043053867599 L 68.8914603588432,-85.43043053867599 L 68.8914603588432,-74.4905491646652 Q 68.89145917326145,-56.7261039056636 81.66053253781499,-56.72610713138363 Q 78.42129988119189,-55.02911218462427 73.64014289665819,-48.48197713138363 L 68.7541505571723,-48.48197713138363 L 47.5,-48.48197713138363" fill="rgb(227,175,186)" stroke="rgb(51,51,51)" stroke-width="0.2"/>
  <path d="M 104.78302847886152,-29.887003152299144 L 91.07067285884322,-29.887003152299144 L 91.07067285884322,-44.38609955898784 L 104.78302847886152,-44.38609955898784 L 104.78302847886152,-29.887003152299144" fill="rgb(227,175,186)" stroke="rgb(51,51,51)" stroke-width="0.2"/>
  <path d="M 61.13541295651132,-29.887003152299144 L 61.13541295651132,-44.38609955898784 L 74.84776857652962,-44.38609955898784 L 74.84776857652962,-29.887003152299144 L 61.13541295651132,-29.887003152299144" fill="rgb(227,175,186)" stroke="rgb(51,51,51)" stroke-width="0.2"/>
</svg>
