<?xml version="1.0" encoding="utf-8" ?>
<svg xmlns="http://www.w3.org/2000/svg" xmlns:ev="http://www.w3.org/2001/xml-events" xmlns:xlink="http://www.w3.org/1999/xlink" baseProfile="full" height="126.49274713544753cm" version="1.1" viewBox="-39.93419377549275 -142.83180567174625 210.8796123356777 126.49274713544753" width="210.8796123356777cm">
  <defs/>
  <path d="M 40.35193876227589,-18.33905853629873 A 18.306253547313744,18.306253547313744 0.0 0,1 60.505612392346094,-18.33905853629873 L 53.94268391064433,-80.54387341094778 L 49.94596724397766,-80.54387341094778 L 46.91486724397766,-80.54387341094778 L 40.35193876227589,-18.33905853629873" fill="rgb(227,175,186)" stroke="rgb(51,51,51)" stroke-width="0.2"/>
  <path d="M -37.93419377549275,-18.33905853629873 A 18.306253547313744,18.306253547313744 0.0 0,1 -17.780520145422553,-18.33905853629873 L -24.343448627124317,-80.54387341094778 L -31.371265293790984,-80.54387341094778 L -37.93419377549275,-18.33905853629873" fill="rgb(227,175,186)" stroke="rgb(51,51,51)" stroke-width="0.2"/>
  <path d="M -22.598999999999997,-85.54387341094781 L -15.571183333333332,-85.54387341094781 L -8.543366666666667,-85.54387341094781 L -1.5155499999999975,-85.54387341094781 L 5.512266666666665,-85.54387341094781 L 12.540083333333335,-85.54387341094781 L 19.5679,-85.54387341094781 L 22.598999999999997,-85.54387341094781 L 22.598999999999997,-95.8767013549583 L 8.351181380503387,-95.8767013549583 L -0.08870875653159516,-95.8767013549583 L -8.528598893566578,-95.8767013549583 L -22.598999999999997,-95.8767013549583 L -22.598999999999997,-85.54387341094781" fill="rgb(227,175,186)" stroke="rgb(51,51,51)" stroke-width="0.2"/>
  <path d="M 31.95741434467709,-18.33905853629873 A 18.306253547313744,18.306253547313744 0.0 0,1 52.11108797474729,-18.33905853629873 L 45.548159493045524,-80.54387341094778 L 38.52034282637886,-80.54387341094778 L 31.95741434467709,-18.33905853629873" fill="rgb(227,175,186)" stroke="rgb(51,51,51)" stroke-width="0.2"/>
  <path d="M 0.0,-97.85775552378857 L 8.473150131373654,-97.85775552378857 L 9.634250131373655,-110.61550785797345 L 10.795350131373658,-97.85775552378857 L 24.921200000000002,-97.85775552378857 L 26.082300000000004,-112.09162216584856 L 13.003468750843743,-113.92612216584855 L 26.082300000000004,-115.76062216584856 L 24.46108879114451,-120.43759601626539 C 16.52807168085635,-121.53851861047355 17.07654504633905,-128.17983694490715 17.06859331985356,-138.8790760620653 L 13.084070580387115,-140.46291377076508 A 12.353727694932584,12.353727694932584 0.0 0,1 0.0,-129.35508192337147 L 0.0,-97.85775552378857" fill="rgb(227,175,186)" stroke="rgb(51,51,51)" stroke-width="0.2"/>
  <path d="M 0.0,-97.85775552378857 L 0.0,-129.35508192337147 A 12.353727694932584,12.353727694932584 0.0 0,1 -13.084070580387115,-140.46291377076508 L -17.06859331985356,-138.8790760620653 C -17.07654504633905,-128.17983694490715 -16.52807168085635,-121.53851861047355 -24.46108879114451,-120.43759601626539 L -26.082300000000004,-115.76062216584856 L -13.003468750843743,-113.92612216584855 L -26.082300000000004,-112.09162216584856 L -24.921200000000002,-97.85775552378857 L -10.795350131373658,-97.85775552378857 L -9.634250131373655,-110.61550785797345 L -8.473150131373654,-97.85775552378857 L 0.0,-97.85775552378857" fill="rgb(227,175,186)" stroke="rgb(51,51,51)" stroke-width="0.2"/>
  <path d="M -25.352012201040594,-18.33905853629873 A 18.306253547313744,18.306253547313744 0.0 0,1 -5.198338570970396,-18.33905853629873 L -11.761267052672162,-80.54387341094778 L -18.789083719338826,-80.54387341094778 L -25.352012201040594,-18.33905853629873" fill="rgb(227,175,186)" stroke="rgb(51,51,51)" stroke-width="0.2"/>
  <path d="M 14.999926561235299,-18.33905853629873 A 18.306253547313744,18.306253547313744 0.0 0,1 35.1536001913055,-18.33905853629873 L 28.590671709603733,-80.54387341094778 L 21.562855042937066,-80.54387341094778 L 14.999926561235299,-18.33905853629873" fill="rgb(227,175,186)" stroke="rgb(51,51,51)" stroke-width="0.2"/>
  <path d="M -5.976779430815648,-18.33905853629873 A 18.306253547313744,18.306253547313744 0.0 0,1 14.176894199254551,-18.33905853629873 L 7.613965717552785,-80.54387341094778 L 0.5861490508861182,-80.54387341094778 L -5.976779430815648,-18.33905853629873" fill="rgb(227,175,186)" stroke="rgb(51,51,51)" stroke-width="0.2"/>
  <path d="M 116.83433058543767,-18.33905853629873 A 18.306253547313744,18.306253547313744 0.0 0,1 136.98800421550786,-18.33905853629873 L 130.4250757338061,-80.54387341094778 L 123.39725906713943,-80.54387341094778 L 116.83433058543767,-18.33905853629873" fill="rgb(227,175,186)" stroke="rgb(51,51,51)" stroke-width="0.2"/>
  <path d="M 95.85762459338672,-18.33905853629873 A 18.306253547313744,18.306253547313744 0.0 0,1 116.01129822345692,-18.33905853629873 L 109.44836974175514,-80.54387341094778 L 102.42055307508848,-80.54387341094778 L 95.85762459338672,-18.33905853629873" fill="rgb(227,175,186)" stroke="rgb(51,51,51)" stroke-width="0.2"/>
  <path d="M 136.20956335566262,-18.33905853629873 A 18.306253547313744,18.306253547313744 0.0 0,1 156.3632369857328,-18.33905853629873 L 149.80030850403105,-80.54387341094778 L 142.77249183736438,-80.54387341094778 L 136.20956335566262,-18.33905853629873" fill="rgb(227,175,186)" stroke="rgb(51,51,51)" stroke-width="0.2"/>
  <path d="M 110.857551154622,-104.26453884846742 L 110.857551154622,-127.6300965267059 A 13.084594710700136,13.084594710700136 0.0 0,0 123.9416217350091,-140.83180567174625 L 128.085951154622,-139.18444457807914 C 127.70248014546202,-128.64177455517915 126.91915313859204,-122.1178830414392 134.695601154622,-120.74296453227922 L 134.695601154622,-116.12951385279466 L 133.98390948795534,-101.895647186128 Q 129.88941661435027,-102.77205311148182 125.77426867937947,-103.34064690733337 L 126.14033278002434,-114.13808342153325 L 124.00706422357862,-103.54715317579762 Q 121.7394826697385,-103.79529678647398 119.46731748299558,-103.95760755331005 L 119.34448461614397,-115.96102357914364 L 117.69172465251074,-104.07130244258924 Q 114.27979749625725,-104.26453888028195 110.857551154622,-104.26453884846742" fill="rgb(227,175,186)" stroke="rgb(51,51,51)" stroke-width="0.2"/>
  <path d="M 110.857551154622,-104.26453884846742 Q 107.43530481298676,-104.26453888028195 104.02337765673326,-104.07130244258924 L 102.37061769310003,-115.96102357914364 L 102.24778482624842,-103.95760755331005 Q 99.9756196395055,-103.79529678647398 97.70803808566538,-103.54715317579762 L 95.57476952921967,-114.13808342153325 L 95.94083362986453,-103.34064690733337 Q 91.82568569489375,-102.77205311148182 87.73119282128867,-101.895647186128 L 87.019501154622,-116.12951385279466 L 87.019501154622,-120.74296453227922 C 94.79594917065197,-122.1178830414392 94.01262216378198,-128.64177455517915 93.62915115462201,-139.18444457807914 L 97.77348057423491,-140.83180567174625 A 13.084594710700136,13.084594710700136 0.0 0,0 110.857551154622,-127.6300965267059 L 110.857551154622,-104.26453884846742" fill="rgb(227,175,186)" stroke="rgb(51,51,51)" stroke-width="0.2"/>
  <path d="M 78.90013680994491,-18.33905853629873 A 18.306253547313744,18.306253547313744 0.0 0,1 99.0538104400151,-18.33905853629873 L 92.49088195831334,-80.54387341094778 L 85.46306529164667,-80.54387341094778 L 78.90013680994491,-18.33905853629873" fill="rgb(227,175,186)" stroke="rgb(51,51,51)" stroke-width="0.2"/>
  <path d="M 91.28965115462199,-85.54387341094781 L 91.28965115462199,-95.8767013549583 L 99.59464340814006,-95.8767013549583 L 104.13528365679927,-95.8767013549583 L 110.94625991115359,-95.8767013549583 L 117.7572361655079,-95.8767013549583 L 122.29787641416712,-95.8767013549583 L 130.425451154622,-95.8767013549583 L 130.425451154622,-85.54387341094781 L 126.42873448795534,-85.54387341094781 L 119.40091782128867,-85.54387341094781 L 112.37310115462199,-85.54387341094781 L 105.34528448795533,-85.54387341094781 L 98.31746782128866,-85.54387341094781 L 91.28965115462199,-85.54387341094781" fill="rgb(227,175,186)" stroke="rgb(51,51,51)" stroke-width="0.2"/>
  <path d="M 148.79174493011476,-18.33905853629873 A 18.306253547313744,18.306253547313744 0.0 0,1 168.94541856018495,-18.33905853629873 L 162.3824900784832,-80.54387341094778 L 155.35467341181652,-80.54387341094778 L 148.79174493011476,-18.33905853629873" fill="rgb(227,175,186)" stroke="rgb(51,51,51)" stroke-width="0.2"/>
  <path d="M 70.5056123923461,-18.33905853629873 A 18.306253547313744,18.306253547313744 0.0 0,1 90.6592860224163,-18.33905853629873 L 84.09635754071454,-80.54387341094778 L 77.06854087404787,-80.54387341094778 L 70.5056123923461,-18.33905853629873" fill="rgb(227,175,186)" stroke="rgb(51,51,51)" stroke-width="0.2"/>
</svg>
