<?xml version="1.0" encoding="utf-8" ?>
<svg xmlns="http://www.w3.org/2000/svg" xmlns:ev="http://www.w3.org/2001/xml-events" xmlns:xlink="http://www.w3.org/1999/xlink" baseProfile="full" height="157.13532818096837cm" version="1.1" viewBox="-56.65152130779131 -143.27040678456146 232.60608523116525 157.13532818096837" width="232.60608523116525cm">
  <defs/>
  <path d="M 43.44426275768986,-116.16487983458521 L 18.758483488970818,-141.27040678456143 C 8.33396056281056,-131.15576973765718 17.97911379939516,-124.06467365359151 16.54614958597107,-115.32211985413946 L 29.34714732443502,-102.30345877760512 L 43.44426275768986,-116.16487983458521" fill="rgb(227,175,186)" stroke="rgb(51,51,51)" stroke-width="0.2"/>
  <path d="M 54.597329857699826,11.864921396406906 L 46.18684484257522,-0.9283991119539579 L 2.0317931420564648,-0.9283991119539579 L -6.378691873068142,11.864921396406906 L 54.597329857699826,11.864921396406906" fill="rgb(227,175,186)" stroke="rgb(51,51,51)" stroke-width="0.2"/>
  <path d="M -54.597329857699826,11.864921396406906 L 6.378691873068142,11.864921396406906 L -2.0317931420564648,-0.9283991119539579 L -46.18684484257521,-0.9283991119539579 L -54.597329857699826,11.864921396406906" fill="rgb(227,175,186)" stroke="rgb(51,51,51)" stroke-width="0.2"/>
  <path d="M -43.44426275768986,-116.16487983458521 L -29.34714732443502,-102.30345877760512 L -16.54614958597107,-115.32211985413946 C -17.97911379939516,-124.06467365359151 -8.33396056281056,-131.15576973765718 -18.758483488970818,-141.27040678456143 L -43.44426275768986,-116.16487983458521" fill="rgb(227,175,186)" stroke="rgb(51,51,51)" stroke-width="0.2"/>
  <path d="M 54.65152130779131,-116.8109460822192 L 44.84650447591599,-114.73879492699159 L 37.0334253799728,-107.05634530720063 L 34.796265146882206,-97.28765657355027 L 54.65152130779131,-116.8109460822192" fill="rgb(227,175,186)" stroke="rgb(51,51,51)" stroke-width="0.2"/>
  <path d="M -54.65152130779131,-116.8109460822192 L -34.79626514688221,-97.28765657355027 L -37.033425379972805,-107.05634530720063 L -44.846504475916,-114.73879492699159 L -54.65152130779131,-116.8109460822192" fill="rgb(227,175,186)" stroke="rgb(51,51,51)" stroke-width="0.2"/>
  <path d="M 30.5,-7.102584111953959 L 30.5,-63.137323617507214 Q 30.49998158781166,-74.90863033955371 28.77185,-86.62102361750722 L 6.172850000000004,-86.62102361750722 L 6.172850000000004,-73.70498861750721 Q 6.172813819481533,-54.323690721026466 0.09106250000000671,-54.32369361750722 Q 2.091115206155255,-40.21473229311333 2.0910625000000067,-7.102584111953959 L 30.5,-7.102584111953959" fill="rgb(227,175,186)" stroke="rgb(51,51,51)" stroke-width="0.2"/>
  <path d="M -30.5,-7.102584111953959 L -2.0910625000000067,-7.102584111953959 Q -2.091115206155255,-40.21473229311333 -0.09106250000000671,-54.32369361750722 Q -6.172813819481533,-54.323690721026466 -6.172850000000004,-73.70498861750721 L -6.172850000000004,-86.62102361750722 L -28.77185,-86.62102361750722 Q -30.49998158781166,-74.90863033955371 -30.5,-63.137323617507214 L -30.5,-7.102584111953959" fill="rgb(227,175,186)" stroke="rgb(51,51,51)" stroke-width="0.2"/>
  <path d="M 0.0,-91.60764237186899 L 25.33347696290866,-91.60764237186899 L 26.179469066486902,-115.57238635388856 C 16.299368641847753,-117.12421654619797 17.132576782013757,-125.40392290785093 17.361748958058968,-138.76254750518447 L 13.171975851678848,-140.4279717764837 Q 3.036563481370859,-137.74790142225152 0.0,-125.92214677360425 L 0.0,-91.60764237186899" fill="rgb(227,175,186)" stroke="rgb(51,51,51)" stroke-width="0.2"/>
  <path d="M 0.0,-91.60764237186899 L 0.0,-125.92214677360425 Q -3.036563481370859,-137.74790142225152 -13.171975851678848,-140.4279717764837 L -17.361748958058968,-138.76254750518447 C -17.132576782013757,-125.40392290785093 -16.299368641847753,-117.12421654619797 -26.179469066486902,-115.57238635388856 L -25.33347696290866,-91.60764237186899 L 0.0,-91.60764237186899" fill="rgb(227,175,186)" stroke="rgb(51,51,51)" stroke-width="0.2"/>
  <path d="M 119.30304261558263,-91.63440486314542 L 119.30304261558263,-135.90396664592456 A 21.437593902530917,21.437593902530917 0.0 0,0 132.47501846726146,-140.42797179583945 L 136.6223467313203,-138.7794185829987 C 135.2801447366395,-125.86600591311938 133.77911870529212,-117.9202084970571 143.21400720247703,-115.58925743170278 L 142.4567020135523,-91.63440486314542 L 132.7877694109845,-91.63440486314542 L 127.39387860459895,-91.63440486314542 L 119.30304261558263,-91.63440486314542" fill="rgb(227,175,186)" stroke="rgb(51,51,51)" stroke-width="0.2"/>
  <path d="M 119.30304261558263,-91.63440486314542 L 111.2122066265663,-91.63440486314542 L 105.81831582018074,-91.63440486314542 L 96.14938321761295,-91.63440486314542 L 95.39207802868822,-115.58925743170278 C 104.82696652587313,-117.9202084970571 103.32594049452577,-125.86600591311938 101.98373849984495,-138.7794185829987 L 106.13106676390377,-140.42797179583945 A 21.437593902530917,21.437593902530917 0.0 0,0 119.30304261558263,-135.90396664592456 L 119.30304261558263,-91.63440486314542" fill="rgb(227,175,186)" stroke="rgb(51,51,51)" stroke-width="0.2"/>
  <path d="M 154.80304261558263,-4.7542141119539565 L 121.3348357576391,-4.7542141119539565 Q 121.33488846379433,-37.866362293113326 119.3348357576391,-51.975323617507215 Q 127.39112371944674,-51.97532683881192 127.39119261558263,-72.41338511750722 L 127.39119261558263,-86.6210236175072 L 134.22901754978528,-86.6210236175072 L 135.63267359616052,-66.00309240184421 L 137.03632964253575,-86.6210236175072 L 141.5948797229402,-86.6210236175072 L 142.99853576931542,-68.0749751593896 L 144.40219181569066,-86.6210236175072 L 152.57371680108355,-86.6210236175072 Q 154.8030424102217,-73.75031728294034 154.80304261558263,-60.78895361750721 L 154.80304261558263,-4.7542141119539565" fill="rgb(227,175,186)" stroke="rgb(51,51,51)" stroke-width="0.2"/>
  <path d="M 83.80304261558263,-4.7542141119539565 L 83.80304261558263,-60.78895361750721 Q 83.80304282094355,-73.75031728294034 86.03236843008169,-86.6210236175072 L 94.2038934154746,-86.6210236175072 L 95.60754946184983,-68.0749751593896 L 97.01120550822506,-86.6210236175072 L 101.56975558862952,-86.6210236175072 L 102.97341163500475,-66.00309240184421 L 104.37706768137998,-86.6210236175072 L 111.21489261558263,-86.6210236175072 L 111.21489261558263,-72.41338511750722 Q 111.21496151171851,-51.97532683881192 119.27124947352615,-51.975323617507215 Q 117.27119676737092,-37.86636229311333 117.27124947352615,-4.7542141119539565 L 83.80304261558263,-4.7542141119539565" fill="rgb(227,175,186)" stroke="rgb(51,51,51)" stroke-width="0.2"/>
  <path d="M 162.7473053732725,-116.16487983458521 L 149.03272644131624,-102.67959952350944 L 136.2317287028523,-115.6982606000438 C 137.36042696881222,-124.0373236045414 129.30661451275006,-132.4538315738582 138.06152610455345,-141.27040678456143 L 162.7473053732725,-116.16487983458521" fill="rgb(227,175,186)" stroke="rgb(51,51,51)" stroke-width="0.2"/>
  <path d="M 173.90037247328246,11.864921396406906 L 112.92435074251449,11.864921396406906 L 121.3348357576391,-0.9283991119539579 L 165.48988745815785,-0.9283991119539579 L 173.90037247328246,11.864921396406906" fill="rgb(227,175,186)" stroke="rgb(51,51,51)" stroke-width="0.2"/>
  <path d="M 64.7057127578828,11.864921396406906 L 73.11619777300741,-0.9283991119539579 L 117.27124947352615,-0.9283991119539579 L 125.68173448865076,11.864921396406906 L 64.7057127578828,11.864921396406906" fill="rgb(227,175,186)" stroke="rgb(51,51,51)" stroke-width="0.2"/>
  <path d="M 75.85877985789276,-116.16487983458521 L 100.5445591266118,-141.27040678456143 C 109.2994707184152,-132.4538315738582 101.24565826235303,-124.0373236045414 102.37435652831294,-115.6982606000438 L 89.573358789849,-102.67959952350944 L 75.85877985789276,-116.16487983458521" fill="rgb(227,175,186)" stroke="rgb(51,51,51)" stroke-width="0.2"/>
  <path d="M 173.95456392337394,-116.8109460822192 L 154.09930776246483,-97.28765657355027 L 156.33646799555544,-107.05634530720063 L 164.14954709149862,-114.73879492699159 L 173.95456392337394,-116.8109460822192" fill="rgb(227,175,186)" stroke="rgb(51,51,51)" stroke-width="0.2"/>
  <path d="M 64.65152130779131,-116.8109460822192 L 74.45653813966663,-114.73879492699159 L 82.26961723560981,-107.05634530720063 L 84.50677746870042,-97.28765657355027 L 64.65152130779131,-116.8109460822192" fill="rgb(227,175,186)" stroke="rgb(51,51,51)" stroke-width="0.2"/>
</svg>
