<?xml version="1.0" encoding="utf-8" ?>
<svg xmlns="http://www.w3.org/2000/svg" xmlns:ev="http://www.w3.org/2001/xml-events" xmlns:xlink="http://www.w3.org/1999/xlink" baseProfile="full" height="59.6280250713764cm" version="1.1" viewBox="-31.207477779603003 -110.77250000000001 135.069255559206 59.6280250713764" width="135.069255559206cm">
  <defs/>
  <path d="M -23.130002380163333,-108.77250000000001 L -23.575662309428708,-104.09695142122686 A 242.50574713835326,242.50574713835326 0.0 0,0 22.445659929265375,-104.09695142122686 L 22.0,-108.77250000000001 A 237.8090070683664,237.8090070683664 0.0 0,1 -23.130002380163333,-108.77250000000001" fill="rgb(227,175,186)" stroke="rgb(51,51,51)" stroke-width="0.2"/>
  <path d="M -29.207477779603003,-54.1444749286236 L -1.4825141774314368,-54.1444749286236 L -0.48251417743143676,-60.5907732139543 L 0.5174858225685632,-54.1444749286236 L 28.242449999999984,-54.1444749286236 Q 27.071053112348757,-58.08332501329939 26.211668215832724,-61.339811169773476 Q 23.844636054436087,-70.30925838343333 23.844636110198486,-74.10205390494482 Q 23.844617696881606,-85.87336065270365 22.116486110198487,-97.58575390494482 L -23.081513889801503,-97.58575390494482 Q -24.80964547761316,-85.87336062699131 -24.809663889801502,-74.10205390494482 Q -24.80966385850423,-69.64134120413694 -28.083777251140177,-58.02020916041334 Q -28.604257572566485,-56.17281726645539 -29.207477779603003,-54.1444749286236" fill="rgb(227,175,186)" stroke="rgb(51,51,51)" stroke-width="0.2"/>
  <path d="M 38.242449999999984,-53.14447492862361 Q 38.845670207036505,-55.1728172664554 39.36615052846281,-57.020209160413344 Q 42.64026392109876,-68.64134120413695 42.64026388980149,-73.10205390494482 Q 42.640264085827845,-85.4742646749392 44.76825671273241,-97.75993890494483 L 52.93978196708747,-97.75993890494483 L 54.36877126135474,-78.79189338870678 L 55.797760555622006,-97.75993890494483 L 60.35631049516004,-97.75993890494483 L 61.785299789427306,-76.67297222394092 L 63.214289083694574,-97.75993890494483 L 76.88993905473055,-97.75993890494483 L 78.31892834899782,-76.67297222394092 L 79.74791764326508,-97.75993890494483 L 84.30646752242359,-97.75993890494483 L 85.73545681669086,-78.79189338870678 L 87.16444611095812,-97.75993890494483 L 95.33597106687057,-97.75993890494483 Q 97.46396369188888,-85.47426473226913 97.46396388980148,-73.10205390494482 Q 97.46396383403909,-69.30925838343335 99.83099599543573,-60.33981116977348 Q 100.69038089195175,-57.083325013299394 101.86177777960299,-53.14447492862361 L 71.05211356260088,-53.14447492862361 L 70.0521135626009,-68.09270183883412 L 69.0521135626009,-53.14447492862361 L 38.242449999999984,-53.14447492862361" fill="rgb(227,175,186)" stroke="rgb(51,51,51)" stroke-width="0.2"/>
  <path d="M 50.948307866868454,-108.77250000000001 A 62.60203825526927,62.60203825526927 0.0 0,0 89.44992777960297,-108.77250000000001 L 90.8942266079109,-104.30334256491577 A 67.29877832525315,67.29877832525315 0.0 0,1 82.38295282965954,-102.15442500668789 A 67.2987783252673,67.2987783252673 0.0 0,1 77.53534542033208,-101.44340567388952 A 67.2987783252605,67.2987783252605 0.0 0,1 62.862890609583474,-101.44340563183977 A 67.29877832527643,67.29877832527643 0.0 0,1 58.01528313234371,-102.15442494860396 A 67.29877832525688,67.29877832525688 0.0 0,1 49.50400903856054,-104.30334256491577 L 50.948307866868454,-108.77250000000001" fill="rgb(227,175,186)" stroke="rgb(51,51,51)" stroke-width="0.2"/>
</svg>
