<?xml version="1.0" encoding="utf-8" ?>
<svg xmlns="http://www.w3.org/2000/svg" xmlns:ev="http://www.w3.org/2001/xml-events" xmlns:xlink="http://www.w3.org/1999/xlink" baseProfile="full" height="115.47635038402967cm" version="1.1" viewBox="-32.5 -143.36335353632882 156.0 115.47635038402967" width="156.0cm">
  <defs/>
  <path d="M 23.571663057264995,-29.887003152299144 L 23.571663057264995,-44.38609955898784 L 5.243315719223901,-44.38609955898784 L 2.0910625000000067,-44.38609955898784 L 2.0910625000000067,-29.887003152299144 L 23.571663057264995,-29.887003152299144" fill="rgb(227,175,186)" stroke="rgb(51,51,51)" stroke-width="0.2"/>
  <path d="M -23.571663057264995,-29.887003152299144 L -2.0910625000000067,-29.887003152299144 L -2.0910625000000067,-44.38609955898784 L -5.243315719223901,-44.38609955898784 L -23.571663057264995,-44.38609955898784 L -23.571663057264995,-29.887003152299144" fill="rgb(227,175,186)" stroke="rgb(51,51,51)" stroke-width="0.2"/>
  <path d="M 30.5,-50.29022198659204 L 30.5,-67.34798198659203 Q 30.499985822615002,-76.4118879380277 29.169324532961845,-85.430430538676 L 6.172850000000004,-85.430430538676 L 6.172850000000004,-75.48508383502983 Q 6.172853828912359,-58.534352405792475 0.09106250000000671,-58.53435198659204 Q 2.0910544716825967,-56.388892603188964 2.0910625000000067,-50.29022198659204 L 30.5,-50.29022198659204" fill="rgb(227,175,186)" stroke="rgb(51,51,51)" stroke-width="0.2"/>
  <path d="M -30.5,-50.29022198659204 L -2.0910625000000067,-50.29022198659204 Q -2.0910544716825967,-56.388892603188964 -0.09106250000000671,-58.53435198659204 Q -6.172853828912363,-58.534352405792475 -6.172850000000004,-75.48508383502983 L -6.172850000000004,-85.430430538676 L -29.169324532961845,-85.430430538676 Q -30.499985822615006,-76.4118879380277 -30.5,-67.34798198659203 L -30.5,-50.29022198659204" fill="rgb(227,175,186)" stroke="rgb(51,51,51)" stroke-width="0.2"/>
  <path d="M 0.0,-90.36352425731253 L 29.994644378149513,-90.36352425731253 L 29.994644378149513,-109.00182743777522 C 17.006591415343586,-110.49638709809491 17.648776996402745,-121.35544154382535 17.228400000000004,-138.81555340113528 L 10.81879991939068,-141.3633534092106 Q 15.879266662417477,-111.86380037397032 0.0,-114.75407295229407 L 0.0,-90.36352425731253" fill="rgb(227,175,186)" stroke="rgb(51,51,51)" stroke-width="0.2"/>
  <path d="M 0.0,-90.36352425731253 L 0.0,-114.75407295229407 Q -15.879266662417477,-111.86380037397032 -10.818799919390681,-141.3633534092106 L -17.228400000000004,-138.81555340113528 C -17.648776996402745,-121.35544154382535 -17.006591415343586,-110.49638709809491 -29.994644378149513,-109.00182743777522 L -29.994644378149513,-90.36352425731253 L 0.0,-90.36352425731253" fill="rgb(227,175,186)" stroke="rgb(51,51,51)" stroke-width="0.2"/>
  <path d="M 81.0,-90.49733682003948 L 81.0,-126.51959309210179 A 11.364494094642323,11.364494094642323 0.0 0,0 91.81879991939067,-141.36335353632882 L 98.2284,-138.81555276015865 C 97.35833327315629,-121.87161839214731 95.94188145814925,-111.3996970633908 108.4137569316566,-109.0018267967986 L 108.4137569316566,-90.49733682003948 L 95.61806683620928,-90.49733682003948 L 89.77084019426823,-90.49733682003948 L 81.0,-90.49733682003948" fill="rgb(227,175,186)" stroke="rgb(51,51,51)" stroke-width="0.2"/>
  <path d="M 81.0,-90.49733682003948 L 72.22915980573177,-90.49733682003948 L 66.3819331637907,-90.49733682003948 L 53.5862430683434,-90.49733682003948 L 53.5862430683434,-109.0018267967986 C 66.05811854185075,-111.3996970633908 64.64166672684371,-121.87161839214731 63.7716,-138.81555276015865 L 70.18120008060933,-141.36335353632882 A 11.364494094642323,11.364494094642323 0.0 0,0 81.0,-126.51959309210179 L 81.0,-90.49733682003948" fill="rgb(227,175,186)" stroke="rgb(51,51,51)" stroke-width="0.2"/>
  <path d="M 121.5,-48.48197713138363 L 88.20507016051411,-48.48197713138363 L 83.31907782102823,-48.48197713138363 Q 83.31906979271082,-54.58064774798055 81.31907782102823,-56.72610713138363 Q 94.08815118558175,-56.7261039056636 94.08815,-74.4905491646652 L 94.08815,-85.43043053867599 L 100.92597500018442,-85.43043053867599 L 102.00679012912073,-69.55462389587132 L 103.08760525805705,-85.43043053867599 L 107.64615513793487,-85.43043053867599 L 108.72697026687118,-71.14997357966324 L 109.8077853958075,-85.43043053867599 L 119.78341916535673,-85.43043053867599 Q 121.4999998418721,-75.51998690529567 121.5,-65.53973713138363 L 121.5,-48.48197713138363" fill="rgb(227,175,186)" stroke="rgb(51,51,51)" stroke-width="0.2"/>
  <path d="M 40.5,-48.48197713138363 L 40.5,-65.53973713138363 Q 40.50000015812791,-75.51998690529567 42.21658083464327,-85.43043053867599 L 52.1922146041925,-85.43043053867599 L 53.273029733128816,-71.14997357966324 L 54.35384486206513,-85.43043053867599 L 58.91239474194295,-85.43043053867599 L 59.99320987087926,-69.55462389587132 L 61.07402499981558,-85.43043053867599 L 67.91185,-85.43043053867599 L 67.91185,-74.4905491646652 Q 67.91184881441825,-56.7261039056636 80.68092217897177,-56.72610713138363 Q 78.68093020728918,-54.58064774798055 78.68092217897177,-48.48197713138363 L 73.79492983948589,-48.48197713138363 L 40.5,-48.48197713138363" fill="rgb(227,175,186)" stroke="rgb(51,51,51)" stroke-width="0.2"/>
  <path d="M 104.571663057265,-29.887003152299144 L 83.0910625,-29.887003152299144 L 83.0910625,-44.38609955898784 L 104.571663057265,-44.38609955898784 L 104.571663057265,-29.887003152299144" fill="rgb(227,175,186)" stroke="rgb(51,51,51)" stroke-width="0.2"/>
  <path d="M 57.428336942735,-29.887003152299144 L 57.428336942735,-44.38609955898784 L 78.9089375,-44.38609955898784 L 78.9089375,-29.887003152299144 L 57.428336942735,-29.887003152299144" fill="rgb(227,175,186)" stroke="rgb(51,51,51)" stroke-width="0.2"/>
</svg>
