<?xml version="1.0" encoding="utf-8" ?>
<svg xmlns="http://www.w3.org/2000/svg" xmlns:ev="http://www.w3.org/2001/xml-events" xmlns:xlink="http://www.w3.org/1999/xlink" baseProfile="full" height="65.80604447621144cm" version="1.1" viewBox="-40.46634303889225 -161.6638 167.865372155569 65.80604447621144" width="167.865372155569cm">
  <defs/>
  <path d="M 38.46634303889225,-122.04008606877255 L 21.90888973743953,-138.8790760620653 C 9.211880771431694,-126.34654366853019 13.464418891311979,-115.02932421660238 8.46552930965683,-103.1832932650351 L 24.36328226861867,-108.17281907684693 L 38.46634303889225,-122.04008606877255" fill="rgb(227,175,186)" stroke="rgb(51,51,51)" stroke-width="0.2"/>
  <path d="M -38.46634303889225,-122.04008606877255 L -24.36328226861867,-108.17281907684693 L -8.46552930965683,-103.1832932650351 C -13.464418891311979,-115.02932421660238 -9.211880771431694,-126.34654366853019 -21.90888973743953,-138.8790760620653 L -38.46634303889225,-122.04008606877255" fill="rgb(227,175,186)" stroke="rgb(51,51,51)" stroke-width="0.2"/>
  <path d="M 0.0,-97.85775552378857 L 8.473150131373654,-97.85775552378857 L 9.634250131373655,-110.61550785797345 L 10.795350131373658,-97.85775552378857 L 24.921200000000002,-97.85775552378857 L 26.082300000000004,-112.09162216584856 L 13.003468750843743,-113.92612216584855 L 26.082300000000004,-115.76062216584856 L 24.46108879114451,-120.43759601626539 C 16.52807168085635,-121.53851861047355 17.07654504633905,-128.17983694490715 17.06859331985356,-138.8790760620653 L 7.724582255554199,-142.59329737257522 Q 7.833755737485147,-133.65681501306221 0.0,-129.35508200688173 L 0.0,-97.85775552378857" fill="rgb(227,175,186)" stroke="rgb(51,51,51)" stroke-width="0.2"/>
  <path d="M 0.0,-97.85775552378857 L 0.0,-129.35508200688173 Q -7.833755737485145,-133.65681501306221 -7.7245822555542,-142.59329737257522 L -17.06859331985356,-138.8790760620653 C -17.07654504633905,-128.17983694490715 -16.52807168085635,-121.53851861047355 -24.46108879114451,-120.43759601626539 L -26.082300000000004,-115.76062216584856 L -13.003468750843743,-113.92612216584855 L -26.082300000000004,-112.09162216584856 L -24.921200000000002,-97.85775552378857 L -10.795350131373658,-97.85775552378857 L -9.634250131373655,-110.61550785797345 L -8.473150131373654,-97.85775552378857 L 0.0,-97.85775552378857" fill="rgb(227,175,186)" stroke="rgb(51,51,51)" stroke-width="0.2"/>
  <path d="M 14.0,-159.6638 L 7.0,-159.6638 L 7.0,-143.46129476055378 Q 15.140501047889247,-153.40304842816613 14.0,-159.6638" fill="rgb(227,175,186)" stroke="rgb(51,51,51)" stroke-width="0.2"/>
  <path d="M -14.0,-159.6638 Q -15.140501047889247,-153.40304842816613 -7.0,-143.46129476055378 L -7.0,-159.6638 L -14.0,-159.6638" fill="rgb(227,175,186)" stroke="rgb(51,51,51)" stroke-width="0.2"/>
  <path d="M 86.9326860777845,-104.26453884846742 L 86.9326860777845,-118.40852109079617 A 13.491910588880794,13.491910588880794 0.0 0,0 94.65726833333869,-142.96218923964597 L 104.16108607778449,-139.1844445780791 C 103.77761506862451,-128.64177455517915 102.99428806175453,-122.11788304143919 110.77073607778449,-120.7429645322792 L 110.77073607778449,-116.12951385279464 L 110.05904441111782,-101.89564718612799 Q 105.96455153751275,-102.77205311148182 101.84940360254197,-103.34064690733337 L 102.21546770318683,-114.13808342153325 L 100.08219914674112,-103.5471531757976 Q 97.814617592901,-103.79529678647397 95.54245240615808,-103.95760755331005 L 95.41961953930647,-115.96102357914363 L 93.76685957567324,-104.07130244258923 Q 90.35493241941974,-104.26453888028195 86.9326860777845,-104.26453884846742" fill="rgb(227,175,186)" stroke="rgb(51,51,51)" stroke-width="0.2"/>
  <path d="M 86.9326860777845,-104.26453884846742 Q 83.51043973614925,-104.26453888028195 80.09851257989575,-104.07130244258923 L 78.44575261626252,-115.96102357914363 L 78.32291974941091,-103.95760755331005 Q 76.05075456266799,-103.79529678647397 73.78317300882787,-103.5471531757976 L 71.64990445238216,-114.13808342153325 L 72.01596855302702,-103.34064690733337 Q 67.90082061805624,-102.77205311148182 63.80632774445117,-101.89564718612799 L 63.0946360777845,-116.12951385279464 L 63.0946360777845,-120.7429645322792 C 70.87108409381446,-122.11788304143919 70.08775708694448,-128.64177455517915 69.7042860777845,-139.1844445780791 L 79.2081038222303,-142.96218923964597 A 13.491910588880794,13.491910588880794 0.0 0,0 86.9326860777845,-118.40852109079617 L 86.9326860777845,-104.26453884846742" fill="rgb(227,175,186)" stroke="rgb(51,51,51)" stroke-width="0.2"/>
  <path d="M 125.39902911667674,-122.04008606877255 L 111.49231286009639,-108.36588084110755 L 95.74181828640448,-103.52115135249119 C 100.54624985297173,-114.94632576697025 97.32749316900842,-127.40228942927504 108.84157581522402,-138.8790760620653 L 125.39902911667674,-122.04008606877255" fill="rgb(227,175,186)" stroke="rgb(51,51,51)" stroke-width="0.2"/>
  <path d="M 48.46634303889225,-122.04008606877255 L 65.02379634034497,-138.8790760620653 C 76.53787898656057,-127.40228942927504 73.31912230259726,-114.94632576697025 78.12355386916451,-103.52115135249119 L 62.3730592954726,-108.36588084110755 L 48.46634303889225,-122.04008606877255" fill="rgb(227,175,186)" stroke="rgb(51,51,51)" stroke-width="0.2"/>
  <path d="M 121.09419023081377,-152.6638 L 86.9326860777845,-152.6638 L 86.9326860777845,-159.6638 L 121.09419023081377,-159.6638 L 121.09419023081377,-152.6638" fill="rgb(227,175,186)" stroke="rgb(51,51,51)" stroke-width="0.2"/>
  <path d="M 52.771181924755226,-152.6638 L 52.771181924755226,-159.6638 L 86.9326860777845,-159.6638 L 86.9326860777845,-152.6638 L 52.771181924755226,-152.6638" fill="rgb(227,175,186)" stroke="rgb(51,51,51)" stroke-width="0.2"/>
</svg>
