<?xml version="1.0" encoding="utf-8" ?>
<svg xmlns="http://www.w3.org/2000/svg" xmlns:ev="http://www.w3.org/2001/xml-events" xmlns:xlink="http://www.w3.org/1999/xlink" baseProfile="full" height="116.96459143997915cm" version="1.1" viewBox="-35.90698875629902 -143.36335353942627 162.81397751259806 116.96459143997915" width="162.81397751259806cm">
  <defs/>
  <path d="M 23.571663057264995,-28.398762099447126 L 23.571663057264995,-42.89785850613582 L 5.243315719223901,-42.89785850613582 L 2.0910625000000067,-42.89785850613582 L 2.0910625000000067,-28.398762099447126 L 23.571663057264995,-28.398762099447126" fill="rgb(227,175,186)" stroke="rgb(51,51,51)" stroke-width="0.2"/>
  <path d="M -23.571663057264995,-28.398762099447126 L -2.0910625000000067,-28.398762099447126 L -2.0910625000000067,-42.89785850613582 L -5.243315719223901,-42.89785850613582 L -23.571663057264995,-42.89785850613582 L -23.571663057264995,-28.398762099447126" fill="rgb(227,175,186)" stroke="rgb(51,51,51)" stroke-width="0.2"/>
  <path d="M 30.5,-48.801980933740005 L 30.5,-65.85974093374 Q 30.499985822615002,-74.92364688517567 29.169324532961845,-83.94218948582397 L 6.172850000000004,-83.94218948582397 L 6.172850000000004,-73.9968427821778 Q 6.172853828912359,-57.04611135294044 0.09106250000000671,-57.04611093374001 Q 2.0910544716825967,-54.90065155033693 2.0910625000000067,-48.801980933740005 L 30.5,-48.801980933740005" fill="rgb(227,175,186)" stroke="rgb(51,51,51)" stroke-width="0.2"/>
  <path d="M -30.5,-48.801980933740005 L -2.0910625000000067,-48.801980933740005 Q -2.0910544716825967,-54.90065155033693 -0.09106250000000671,-57.04611093374001 Q -6.172853828912363,-57.04611135294044 -6.172850000000004,-73.9968427821778 L -6.172850000000004,-83.94218948582397 L -29.169324532961845,-83.94218948582397 Q -30.499985822615006,-74.92364688517567 -30.5,-65.85974093374 L -30.5,-48.801980933740005" fill="rgb(227,175,186)" stroke="rgb(51,51,51)" stroke-width="0.2"/>
  <path d="M 0.0,-88.80837692309703 L 33.90698875629902,-88.80837692309703 L 33.90698875629902,-109.00182745192627 C 20.136466917863196,-109.12706657989364 19.604949185477498,-120.5729726823465 17.2284,-138.81555341528633 L 10.81879991939068,-141.36335337845037 Q 16.734597714774797,-110.48749496726043 0.0,-113.19892558731836 L 0.0,-88.80837692309703" fill="rgb(227,175,186)" stroke="rgb(51,51,51)" stroke-width="0.2"/>
  <path d="M 0.0,-88.80837692309703 L 0.0,-113.19892558731836 Q -16.734597714774793,-110.48749496726043 -10.818799919390678,-141.36335337845037 L -17.2284,-138.81555341528633 C -19.604949185477498,-120.5729726823465 -20.136466917863196,-109.12706657989364 -33.90698875629902,-109.00182745192627 L -33.90698875629902,-88.80837692309703 L 0.0,-88.80837692309703" fill="rgb(227,175,186)" stroke="rgb(51,51,51)" stroke-width="0.2"/>
  <path d="M 84.40698875629903,-89.07600204855095 L 84.40698875629903,-125.09825832371074 A 11.730633882284117,11.730633882284117 0.0 0,0 95.2257886756897,-141.36335353942627 L 101.63538875629902,-138.81555275289884 C 102.55317549528361,-121.15647699855614 102.20943575977356,-110.14819963005115 115.39645261961223,-109.00182678953875 L 115.39645261961223,-89.07600204855095 L 100.93175969891604,-89.07600204855095 L 94.32185142648268,-89.07600204855095 L 84.40698875629903,-89.07600204855095" fill="rgb(227,175,186)" stroke="rgb(51,51,51)" stroke-width="0.2"/>
  <path d="M 84.40698875629903,-89.07600204855095 L 74.49212608611538,-89.07600204855095 L 67.88221781368202,-89.07600204855095 L 53.41752489298583,-89.07600204855095 L 53.41752489298583,-109.00182678953875 C 66.6045417528245,-110.14819963005115 66.26080201731445,-121.15647699855614 67.17858875629904,-138.81555275289884 L 73.58818883690836,-141.36335353942627 A 11.730633882284117,11.730633882284117 0.0 0,0 84.40698875629903,-125.09825832371074 L 84.40698875629903,-89.07600204855095" fill="rgb(227,175,186)" stroke="rgb(51,51,51)" stroke-width="0.2"/>
  <path d="M 124.90698875629903,-46.99373607853161 L 91.61205891681314,-46.99373607853161 L 86.72606657732726,-46.99373607853161 Q 86.72605854900985,-53.09240669512853 84.72606657732726,-55.23786607853161 Q 97.49513994188078,-55.23786285281158 97.49513875629903,-73.00230811181318 L 97.49513875629903,-83.94218948582397 L 104.33296375648345,-83.94218948582397 L 105.41377888541976,-68.06638284301931 L 106.49459401435608,-83.94218948582397 L 111.0531438942339,-83.94218948582397 L 112.1339590231702,-69.66173252681122 L 113.21477415210653,-83.94218948582397 L 123.19040792165576,-83.94218948582397 Q 124.90698859817113,-74.03174585244365 124.90698875629903,-64.05149607853161 L 124.90698875629903,-46.99373607853161" fill="rgb(227,175,186)" stroke="rgb(51,51,51)" stroke-width="0.2"/>
  <path d="M 43.90698875629903,-46.99373607853161 L 43.90698875629903,-64.05149607853161 Q 43.90698891442694,-74.03174585244365 45.623569590942296,-83.94218948582397 L 55.59920336049153,-83.94218948582397 L 56.680018489427844,-69.66173252681122 L 57.76083361836416,-83.94218948582397 L 62.319383498241976,-83.94218948582397 L 63.40019862717829,-68.06638284301931 L 64.4810137561146,-83.94218948582397 L 71.31883875629903,-83.94218948582397 L 71.31883875629903,-73.00230811181318 Q 71.31883757071728,-55.23786285281158 84.0879109352708,-55.23786607853161 Q 82.08791896358821,-53.09240669512853 82.0879109352708,-46.99373607853161 L 77.20191859578492,-46.99373607853161 L 43.90698875629903,-46.99373607853161" fill="rgb(227,175,186)" stroke="rgb(51,51,51)" stroke-width="0.2"/>
  <path d="M 107.97865181356403,-28.398762099447126 L 86.49805125629904,-28.398762099447126 L 86.49805125629904,-42.89785850613582 L 107.97865181356403,-42.89785850613582 L 107.97865181356403,-28.398762099447126" fill="rgb(227,175,186)" stroke="rgb(51,51,51)" stroke-width="0.2"/>
  <path d="M 60.83532569903403,-28.398762099447126 L 60.83532569903403,-42.89785850613582 L 82.31592625629902,-42.89785850613582 L 82.31592625629902,-28.398762099447126 L 60.83532569903403,-28.398762099447126" fill="rgb(227,175,186)" stroke="rgb(51,51,51)" stroke-width="0.2"/>
</svg>
