<?xml version="1.0" encoding="utf-8" ?>
<svg xmlns="http://www.w3.org/2000/svg" xmlns:ev="http://www.w3.org/2001/xml-events" xmlns:xlink="http://www.w3.org/1999/xlink" baseProfile="full" height="75.66243449371746cm" version="1.1" viewBox="-26.87131621512619 -110.77250000000001 117.93746621512618 75.66243449371746" width="117.93746621512618cm">
  <defs/>
  <path d="M -23.15688957292297,-108.77250000000001 L -24.87131621512619,-85.61048347802013 A 329.0961258495057,329.0961258495057 0.0 0,0 23.714426642203218,-85.61048347802013 L 22.00000000000001,-108.77250000000001 A 305.8707460232038,305.8707460232038 0.0 0,1 -23.15688957292297,-108.77250000000001" fill="rgb(227,175,186)" stroke="rgb(51,51,51)" stroke-width="0.2"/>
  <path d="M -24.41185,-37.11006550628256 L 24.24244999999999,-37.11006550628256 L 24.24244999999999,-56.78619228953298 L 24.24244999999999,-62.69670652300429 Q 24.24243709226581,-70.94839226216783 23.03101689285039,-79.15877964071345 L -23.200416892850402,-79.15877964071345 Q -24.411837093057102,-70.94839224343548 -24.41185,-62.69670652300429 L -24.41185,-37.11006550628256" fill="rgb(227,175,186)" stroke="rgb(51,51,51)" stroke-width="0.2"/>
  <path d="M 34.24244999999999,-37.11006550628257 L 34.24244999999999,-62.696706523004295 Q 34.24245013741446,-71.36962596406303 35.734172916109856,-79.98188329659891 L 46.251039417824494,-79.98188329659891 L 47.252760877673296,-66.68528386003882 L 48.254482337522106,-79.98188329659891 L 52.81303227557423,-79.98188329659891 L 53.81475373542304,-65.19992017607773 L 54.81647519527184,-79.98188329659891 L 68.49212515967584,-79.98188329659891 L 69.49384661952465,-65.19992017607773 L 70.49556807937344,-79.98188329659891 L 75.05411788000785,-79.98188329659891 L 76.05583933985665,-66.68528386003882 L 77.05756079970546,-79.98188329659891 L 87.57442708389013,-79.98188329659891 Q 89.06614986126326,-71.36962600617022 89.06615,-62.696706523004295 L 89.06615,-56.78619228953298 L 89.06615,-37.11006550628257 L 34.24244999999999,-37.11006550628257" fill="rgb(227,175,186)" stroke="rgb(51,51,51)" stroke-width="0.2"/>
  <path d="M 42.24089359169222,-108.77250000000001 A 58.63533523374873,58.63533523374873 0.0 0,0 80.65429999999998,-108.77250000000001 L 88.26205009385052,-86.82847104938381 A 81.86071506004154,81.86071506004154 0.0 0,1 75.58396748424786,-83.54202146417161 A 81.86071505998358,81.86071505998358 0.0 0,1 69.95675326536718,-82.75564264660389 A 81.86071506005746,81.86071506005746 0.0 0,1 52.93844076643278,-82.75564260060702 A 81.86071506003395,81.86071506003395 0.0 0,1 47.3112263745596,-83.5420214173405 A 81.86071506004689,81.86071506004689 0.0 0,1 34.63314349784168,-86.82847104938381 L 42.24089359169222,-108.77250000000001" fill="rgb(227,175,186)" stroke="rgb(51,51,51)" stroke-width="0.2"/>
</svg>
