<?xml version="1.0" encoding="utf-8" ?>
<svg xmlns="http://www.w3.org/2000/svg" xmlns:ev="http://www.w3.org/2001/xml-events" xmlns:xlink="http://www.w3.org/1999/xlink" baseProfile="full" height="145.826449232534cm" version="1.1" viewBox="-42.000229568958275 -191.0281629343143 163.2708243914604 145.826449232534" width="163.2708243914604cm">
  <defs/>
  <path d="M -22.598999999999997,-74.99969208855197 L 22.598999999999997,-74.99969208855197 L 22.598999999999997,-95.87670135495827 L 8.351181380503387,-95.87670135495827 L -0.08870875653159516,-95.87670135495827 L -8.528598893566578,-95.87670135495827 L -22.598999999999997,-95.87670135495827 L -22.598999999999997,-74.99969208855197" fill="rgb(227,175,186)" stroke="rgb(51,51,51)" stroke-width="0.2"/>
  <path d="M -40.000229568958275,-47.20171370178031 L 40.000229568958275,-47.20171370178031 L 40.000229568958275,-69.99969208855198 L -40.000229568958275,-69.99969208855198 L -40.000229568958275,-47.20171370178031" fill="rgb(227,175,186)" stroke="rgb(51,51,51)" stroke-width="0.2"/>
  <path d="M 0.0,-97.85775552378858 L 8.473150131373654,-97.85775552378858 L 9.634250131373655,-110.61550785797347 L 10.795350131373658,-97.85775552378858 L 24.921200000000002,-97.85775552378858 L 26.082300000000004,-112.09162216584858 L 13.003468750843743,-113.92612216584857 L 26.082300000000004,-115.76062216584857 L 24.46108879114451,-120.4375960162654 L 18.916717187676298,-125.04796602771538 L 17.06859331985356,-138.8790760620653 L 15.870014180564873,-139.35550801043314 A 17.592544017261673,17.592544017261673 0.0 0,1 0.0,-129.35508193930212 L 0.0,-97.85775552378858" fill="rgb(227,175,186)" stroke="rgb(51,51,51)" stroke-width="0.2"/>
  <path d="M 0.0,-97.85775552378858 L 0.0,-129.35508193930212 A 17.592544017261673,17.592544017261673 0.0 0,1 -15.870014180564873,-139.35550801043314 L -17.06859331985356,-138.8790760620653 L -18.916717187676298,-125.04796602771538 L -24.46108879114451,-120.4375960162654 L -26.082300000000004,-115.76062216584857 L -13.003468750843743,-113.92612216584857 L -26.082300000000004,-112.09162216584858 L -24.921200000000002,-97.85775552378858 L -10.795350131373658,-97.85775552378858 L -9.634250131373655,-110.61550785797347 L -8.473150131373654,-97.85775552378858 L 0.0,-97.85775552378858" fill="rgb(227,175,186)" stroke="rgb(51,51,51)" stroke-width="0.2"/>
  <path d="M 84.00045913791655,-104.26453884846742 L 84.00045913791655,-135.82755568682012 A 34.263975383548015,34.263975383548015 0.0 0,0 99.87047331848143,-139.72439984278827 L 101.22885913791654,-139.18444457807914 L 102.88127163791656,-125.3533345437292 L 107.83850913791655,-120.74296453227922 L 107.83850913791655,-116.12951385279467 L 107.12681747124988,-101.895647186128 Q 103.0323245976448,-102.77205311148182 98.91717666267402,-103.34064690733337 L 99.28324076331889,-114.13808342153327 L 97.14997220687317,-103.54715317579763 Q 94.88239065303306,-103.79529678647398 92.61022546629013,-103.95760755331007 L 92.48739259943852,-115.96102357914364 L 90.83463263580529,-104.07130244258926 Q 87.4227054795518,-104.26453888028196 84.00045913791655,-104.26453884846742" fill="rgb(227,175,186)" stroke="rgb(51,51,51)" stroke-width="0.2"/>
  <path d="M 84.00045913791655,-104.26453884846742 Q 80.5782127962813,-104.26453888028196 77.16628564002781,-104.07130244258926 L 75.51352567639458,-115.96102357914364 L 75.39069280954297,-103.95760755331007 Q 73.11852762280004,-103.79529678647398 70.85094606895993,-103.54715317579763 L 68.71767751251421,-114.13808342153327 L 69.08374161315908,-103.34064690733337 Q 64.9685936781883,-102.77205311148182 60.87410080458322,-101.895647186128 L 60.162409137916555,-116.12951385279467 L 60.162409137916555,-120.74296453227922 L 65.11964663791655,-125.3533345437292 L 66.77205913791656,-139.18444457807914 L 68.13044495735167,-139.72439984278827 A 34.263975383548015,34.263975383548015 0.0 0,0 84.00045913791655,-135.82755568682012 L 84.00045913791655,-104.26453884846742" fill="rgb(227,175,186)" stroke="rgb(51,51,51)" stroke-width="0.2"/>
  <path d="M 50.000229568958275,-47.20171370178031 L 50.000229568958275,-69.99969208855198 L 119.27059482250213,-69.99969208855198 L 119.27059482250213,-47.20171370178031 L 50.000229568958275,-47.20171370178031" fill="rgb(227,175,186)" stroke="rgb(51,51,51)" stroke-width="0.2"/>
  <path d="M 100.74048749904631,-150.87011168806373 Q 116.51855089908571,-183.45965407449287 96.61428472018895,-189.0281629343143 L 65.82645630180357,-189.0281629343143 L 68.77106200309716,-144.6215935834464 C 76.8327583515403,-144.7740186087015 76.78163056661258,-154.61825265246685 84.8403124802976,-154.77436176595975 C 91.6556916766416,-154.7164538690644 93.92763730296056,-150.93011613891483 100.74048749904631,-150.87011168806373" fill="rgb(227,175,186)" stroke="rgb(51,51,51)" stroke-width="0.2"/>
  <path d="M 67.26043077678679,-150.87011168806373 C 74.07328097287254,-150.93011613891483 76.3452265991915,-154.7164538690644 83.1606057955355,-154.77436176595975 C 91.21928770922052,-154.61825265246685 91.16815992429278,-144.7740186087015 99.22985627273594,-144.6215935834464 L 102.17446197402953,-189.0281629343143 L 71.38663355564415,-189.0281629343143 Q 51.4823673767474,-183.45965407449287 67.26043077678679,-150.87011168806373" fill="rgb(227,175,186)" stroke="rgb(51,51,51)" stroke-width="0.2"/>
  <path d="M 64.43255913791654,-74.99969208855197 L 64.43255913791654,-95.87670135495827 L 72.73755139143461,-95.87670135495827 L 77.27819164009382,-95.87670135495827 L 84.08916789444814,-95.87670135495827 L 90.90014414880245,-95.87670135495827 L 95.44078439746167,-95.87670135495827 L 103.56835913791656,-95.87670135495827 L 103.56835913791656,-74.99969208855197 L 64.43255913791654,-74.99969208855197" fill="rgb(227,175,186)" stroke="rgb(51,51,51)" stroke-width="0.2"/>
</svg>
