<?xml version="1.0" encoding="utf-8" ?>
<svg xmlns="http://www.w3.org/2000/svg" xmlns:ev="http://www.w3.org/2001/xml-events" xmlns:xlink="http://www.w3.org/1999/xlink" baseProfile="full" height="65.80604447621144cm" version="1.1" viewBox="-58.566770879966384 -161.6638 240.26708351986554 65.80604447621144" width="240.26708351986554cm">
  <defs/>
  <path d="M 56.566770879966384,-104.53784461254212 L 21.97296684595897,-139.71986864443065 C 9.275957879951136,-127.18733625089553 13.52849599983142,-115.87011679896771 8.529606418176272,-104.02408584740044 L 50.650479380200906,-98.72046956426624 L 56.566770879966384,-104.53784461254212" fill="rgb(227,175,186)" stroke="rgb(51,51,51)" stroke-width="0.2"/>
  <path d="M -56.566770879966384,-104.53784461254212 L -50.650479380200906,-98.72046956426624 L -8.529606418176272,-104.02408584740044 C -13.528495999831414,-115.87011679896771 -9.275957879951136,-127.18733625089553 -21.97296684595897,-139.71986864443065 L -56.566770879966384,-104.53784461254212" fill="rgb(227,175,186)" stroke="rgb(51,51,51)" stroke-width="0.2"/>
  <path d="M 0.0,-97.85775552378857 L 8.473150131373654,-97.85775552378857 L 9.634250131373655,-110.61550785797345 L 10.795350131373658,-97.85775552378857 L 24.921200000000002,-97.85775552378857 L 26.082300000000004,-112.09162216584856 L 13.003468750843743,-113.92612216584855 L 26.082300000000004,-115.76062216584856 L 24.46108879114451,-120.43759601626539 C 16.52807168085635,-121.53851861047355 17.07654504633905,-128.17983694490715 17.06859331985356,-138.8790760620653 L 7.724582255554199,-142.59329737257522 Q 7.833755737485147,-133.65681501306221 0.0,-129.35508200688173 L 0.0,-97.85775552378857" fill="rgb(227,175,186)" stroke="rgb(51,51,51)" stroke-width="0.2"/>
  <path d="M 0.0,-97.85775552378857 L 0.0,-129.35508200688173 Q -7.833755737485145,-133.65681501306221 -7.7245822555542,-142.59329737257522 L -17.06859331985356,-138.8790760620653 C -17.07654504633905,-128.17983694490715 -16.52807168085635,-121.53851861047355 -24.46108879114451,-120.43759601626539 L -26.082300000000004,-115.76062216584856 L -13.003468750843743,-113.92612216584855 L -26.082300000000004,-112.09162216584856 L -24.921200000000002,-97.85775552378857 L -10.795350131373658,-97.85775552378857 L -9.634250131373655,-110.61550785797345 L -8.473150131373654,-97.85775552378857 L 0.0,-97.85775552378857" fill="rgb(227,175,186)" stroke="rgb(51,51,51)" stroke-width="0.2"/>
  <path d="M 14.0,-159.6638 L 7.0,-159.6638 L 7.0,-143.46129476055378 Q 15.140501047889247,-153.40304842816613 14.0,-159.6638" fill="rgb(227,175,186)" stroke="rgb(51,51,51)" stroke-width="0.2"/>
  <path d="M -14.0,-159.6638 Q -15.140501047889247,-153.40304842816613 -7.0,-143.46129476055378 L -7.0,-159.6638 L -14.0,-159.6638" fill="rgb(227,175,186)" stroke="rgb(51,51,51)" stroke-width="0.2"/>
  <path d="M 123.13354175993277,-104.26453884846742 L 123.13354175993277,-118.40852109079617 A 13.491910588880794,13.491910588880794 0.0 0,0 130.85812401548696,-142.96218923964597 L 140.36194175993276,-139.1844445780791 C 139.97847075077277,-128.64177455517915 139.1951437439028,-122.11788304143919 146.97159175993278,-120.7429645322792 L 146.97159175993278,-116.12951385279464 L 146.2599000932661,-101.89564718612799 Q 142.16540721966103,-102.77205311148182 138.05025928469024,-103.34064690733337 L 138.41632338533512,-114.13808342153325 L 136.2830548288894,-103.5471531757976 Q 134.0154732750493,-103.79529678647397 131.74330808830635,-103.95760755331005 L 131.62047522145474,-115.96102357914363 L 129.9677152578215,-104.07130244258923 Q 126.55578810156801,-104.26453888028195 123.13354175993277,-104.26453884846742" fill="rgb(227,175,186)" stroke="rgb(51,51,51)" stroke-width="0.2"/>
  <path d="M 123.13354175993277,-104.26453884846742 Q 119.71129541829752,-104.26453888028195 116.29936826204403,-104.07130244258923 L 114.6466082984108,-115.96102357914363 L 114.52377543155919,-103.95760755331005 Q 112.25161024481626,-103.79529678647397 109.98402869097615,-103.5471531757976 L 107.85076013453043,-114.13808342153325 L 108.2168242351753,-103.34064690733337 Q 104.10167630020452,-102.77205311148182 100.00718342659944,-101.89564718612799 L 99.29549175993277,-116.12951385279464 L 99.29549175993277,-120.7429645322792 C 107.07193977596273,-122.11788304143919 106.28861276909275,-128.64177455517915 105.90514175993277,-139.1844445780791 L 115.40895950437857,-142.96218923964597 A 13.491910588880794,13.491910588880794 0.0 0,0 123.13354175993277,-118.40852109079617 L 123.13354175993277,-104.26453884846742" fill="rgb(227,175,186)" stroke="rgb(51,51,51)" stroke-width="0.2"/>
  <path d="M 179.70031263989915,-104.53784461254212 L 173.7840211401337,-98.72046956426624 L 132.00675107707218,-104.36194393485651 C 136.81118264363943,-115.78711834933557 133.59242595967612,-128.24308201164038 145.10650860589175,-139.71986864443065 L 179.70031263989915,-104.53784461254212" fill="rgb(227,175,186)" stroke="rgb(51,51,51)" stroke-width="0.2"/>
  <path d="M 66.56677087996638,-104.53784461254212 L 101.16057491397379,-139.71986864443065 C 112.6746575601894,-128.24308201164038 109.45590087622608,-115.78711834933557 114.26033244279334,-104.36194393485651 L 72.48306237973186,-98.72046956426624 L 66.56677087996638,-104.53784461254212" fill="rgb(227,175,186)" stroke="rgb(51,51,51)" stroke-width="0.2"/>
  <path d="M 157.29504591296205,-152.6638 L 123.13354175993277,-152.6638 L 123.13354175993277,-159.6638 L 157.29504591296205,-159.6638 L 157.29504591296205,-152.6638" fill="rgb(227,175,186)" stroke="rgb(51,51,51)" stroke-width="0.2"/>
  <path d="M 88.9720376069035,-152.6638 L 88.9720376069035,-159.6638 L 123.13354175993277,-159.6638 L 123.13354175993277,-152.6638 L 88.9720376069035,-152.6638" fill="rgb(227,175,186)" stroke="rgb(51,51,51)" stroke-width="0.2"/>
</svg>
