<?xml version="1.0" encoding="utf-8" ?>
<svg xmlns="http://www.w3.org/2000/svg" xmlns:ev="http://www.w3.org/2001/xml-events" xmlns:xlink="http://www.w3.org/1999/xlink" baseProfile="full" height="59.6280250713764cm" version="1.1" viewBox="-27.35752438322306 -110.77250000000001 117.47799999999998 59.6280250713764" width="117.47799999999998cm">
  <defs/>
  <path d="M -23.130002380163333,-108.77250000000001 L -23.575662309428708,-104.09695142122686 A 242.50574713835326,242.50574713835326 0.0 0,0 22.445659929265375,-104.09695142122686 L 22.0,-108.77250000000001 A 237.8090070683664,237.8090070683664 0.0 0,1 -23.130002380163333,-108.77250000000001" fill="rgb(227,175,186)" stroke="rgb(51,51,51)" stroke-width="0.2"/>
  <path d="M -16.303198766446116,-54.1444749286236 L -2.0303745357620144,-54.1444749286236 L -1.0303745357620144,-60.5907732139543 L -0.030374535762014432,-54.1444749286236 L 14.242449999999991,-54.1444749286236 Q 17.250868157181763,-57.3374384183065 19.259700018097483,-60.61188601970421 Q 23.296775644879453,-67.19242312685239 23.296775616776934,-74.10205390494482 Q 23.296757203460054,-85.87336065270365 21.568625616776934,-97.58575390494482 L -23.62937438322306,-97.58575390494482 Q -25.357505971034715,-85.87336062699131 -25.35752438322306,-74.10205390494482 Q -25.3575244028548,-65.5528416466413 -19.177227599993724,-57.50743495554848 Q -17.876988340687234,-55.81480530190414 -16.303198766446116,-54.1444749286236" fill="rgb(227,175,186)" stroke="rgb(51,51,51)" stroke-width="0.2"/>
  <path d="M 42.35110123355388,-53.14447492862361 Q 40.77731165931276,-54.814805301904144 39.477072400006264,-56.50743495554849 Q 33.29677559714519,-64.55284164664131 33.296775616776934,-73.10205390494482 Q 33.2967758128033,-85.4742646749392 35.42476843970786,-97.75993890494483 L 43.596293694062915,-97.75993890494483 L 45.02528298833018,-78.79189338870678 L 46.45427228259745,-97.75993890494483 L 51.01282222213548,-97.75993890494483 L 52.44181151640275,-76.67297222394092 L 53.87080081067002,-97.75993890494483 L 67.546450781706,-97.75993890494483 L 68.97544007597327,-76.67297222394092 L 70.40442937024054,-97.75993890494483 L 74.96297924939904,-97.75993890494483 L 76.39196854366631,-78.79189338870678 L 77.82095783793358,-97.75993890494483 L 85.99248279384601,-97.75993890494483 Q 88.12047541886432,-85.47426473226913 88.12047561677693,-73.10205390494482 Q 88.12047564487946,-66.19242312685239 84.08340001809748,-59.611886019704215 Q 82.07456815718177,-56.3374384183065 79.06615,-53.14447492862361 L 61.70862542590736,-53.14447492862361 L 60.70862542590736,-68.09270183883412 L 59.70862542590736,-53.14447492862361 L 42.35110123355388,-53.14447492862361" fill="rgb(227,175,186)" stroke="rgb(51,51,51)" stroke-width="0.2"/>
  <path d="M 42.15268008726546,-108.77250000000001 A 62.60203825526927,62.60203825526927 0.0 0,0 80.65429999999998,-108.77250000000001 L 82.0985988283079,-104.30334256491577 A 67.29877832525315,67.29877832525315 0.0 0,1 73.58732505005655,-102.15442500668789 A 67.2987783252673,67.2987783252673 0.0 0,1 68.73971764072908,-101.44340567388952 A 67.2987783252605,67.2987783252605 0.0 0,1 54.06726282998048,-101.44340563183977 A 67.29877832527643,67.29877832527643 0.0 0,1 49.219655352740716,-102.15442494860396 A 67.29877832525688,67.29877832525688 0.0 0,1 40.708381258957544,-104.30334256491577 L 42.15268008726546,-108.77250000000001" fill="rgb(227,175,186)" stroke="rgb(51,51,51)" stroke-width="0.2"/>
</svg>
