<?xml version="1.0" encoding="utf-8" ?>
<svg xmlns="http://www.w3.org/2000/svg" xmlns:ev="http://www.w3.org/2001/xml-events" xmlns:xlink="http://www.w3.org/1999/xlink" baseProfile="full" height="113.10646754899942cm" version="1.1" viewBox="-59.09076209732647 -142.4829651497849 242.36304838930587 113.10646754899942" width="242.36304838930587cm">
  <defs/>
  <path d="M 33.82625187843587,-124.83088700735895 L 18.435866052615445,-140.4829651497848 C 8.011343126455188,-130.36832810288055 17.656496363039793,-123.27723201881489 16.2235321496157,-114.53467821936285 L 19.729136445181027,-110.96946595037886 L 33.82625187843587,-124.83088700735895" fill="rgb(227,175,186)" stroke="rgb(51,51,51)" stroke-width="0.2"/>
  <path d="M 57.09076209732647,-31.37649760078547 L 48.222731970613275,-39.905378617507196 L 7.677935759174311,-39.905378617507196 L 1.6655681420564648,-39.905378617507196 L -7.202461984656729,-31.37649760078547 L 57.09076209732647,-31.37649760078547" fill="rgb(227,175,186)" stroke="rgb(51,51,51)" stroke-width="0.2"/>
  <path d="M -57.09076209732647,-31.37649760078547 L 7.202461984656729,-31.37649760078547 L -1.6655681420564648,-39.905378617507196 L -7.677935759174311,-39.905378617507196 L -48.222731970613275,-39.905378617507196 L -57.09076209732647,-31.37649760078547" fill="rgb(227,175,186)" stroke="rgb(51,51,51)" stroke-width="0.2"/>
  <path d="M -33.82625187843587,-124.83088700735895 L -19.729136445181027,-110.96946595037886 L -16.2235321496157,-114.53467821936285 C -17.656496363039793,-123.27723201881489 -8.011343126455188,-130.36832810288055 -18.435866052615445,-140.4829651497848 L -33.82625187843587,-124.83088700735895" fill="rgb(227,175,186)" stroke="rgb(51,51,51)" stroke-width="0.2"/>
  <path d="M 45.033510428537326,-125.47695325499296 L 35.228493596662005,-123.40480209976535 L 27.415414500718814,-115.72235247997439 L 25.17825426762822,-105.95366374632403 L 45.033510428537326,-125.47695325499296" fill="rgb(227,175,186)" stroke="rgb(51,51,51)" stroke-width="0.2"/>
  <path d="M -45.033510428537326,-125.47695325499296 L -25.178254267628226,-105.95366374632403 L -27.415414500718818,-115.72235247997439 L -35.22849359666201,-123.40480209976535 L -45.033510428537326,-125.47695325499296" fill="rgb(227,175,186)" stroke="rgb(51,51,51)" stroke-width="0.2"/>
  <path d="M 30.5,-46.079563617507205 L 30.5,-63.13732361750721 Q 30.499981587811657,-74.9086303395537 28.77185,-86.6210236175072 L 6.172850000000004,-86.6210236175072 L 6.172850000000004,-73.70498861750721 Q 6.172813819475344,-54.32369072102744 0.09106250000000671,-54.3236936175072 Q 2.0910544716825967,-52.178234234104124 2.0910625000000067,-46.079563617507205 L 30.5,-46.079563617507205" fill="rgb(227,175,186)" stroke="rgb(51,51,51)" stroke-width="0.2"/>
  <path d="M -30.5,-46.079563617507205 L -2.0910625000000067,-46.079563617507205 Q -2.0910544716825967,-52.178234234104124 -0.09106250000000671,-54.3236936175072 Q -6.172813819475344,-54.32369072102744 -6.172850000000004,-73.70498861750721 L -6.172850000000004,-86.6210236175072 L -28.77185,-86.6210236175072 Q -30.499981587811657,-74.9086303395537 -30.5,-63.13732361750721 L -30.5,-46.079563617507205" fill="rgb(227,175,186)" stroke="rgb(51,51,51)" stroke-width="0.2"/>
  <path d="M 0.0,-91.60764237186899 L 25.33347696290866,-91.60764237186899 L 26.179469066486902,-115.57238635388856 C 16.299368641847753,-117.12421654619797 17.132576782013757,-125.40392290785093 17.361748958058968,-138.76254750518447 L 13.171975851678848,-140.4279717764837 Q 3.036563481370859,-137.74790142225152 0.0,-125.92214677360425 L 0.0,-91.60764237186899" fill="rgb(227,175,186)" stroke="rgb(51,51,51)" stroke-width="0.2"/>
  <path d="M 0.0,-91.60764237186899 L 0.0,-125.92214677360425 Q -3.036563481370859,-137.74790142225152 -13.171975851678848,-140.4279717764837 L -17.361748958058968,-138.76254750518447 C -17.132576782013757,-125.40392290785093 -16.299368641847753,-117.12421654619797 -26.179469066486902,-115.57238635388856 L -25.33347696290866,-91.60764237186899 L 0.0,-91.60764237186899" fill="rgb(227,175,186)" stroke="rgb(51,51,51)" stroke-width="0.2"/>
  <path d="M 124.18152419465294,-91.63440486314542 L 124.18152419465294,-135.90396664592456 A 21.437593902530917,21.437593902530917 0.0 0,0 137.3535000463318,-140.42797179583945 L 141.50082831039063,-138.7794185829987 C 140.1586263157098,-125.86600591311938 138.65760028436242,-117.9202084970571 148.09248878154733,-115.58925743170278 L 147.33518359262263,-91.63440486314542 L 137.66625099005483,-91.63440486314542 L 132.27236018378701,-91.63440486314542 L 124.18152419465294,-91.63440486314542" fill="rgb(227,175,186)" stroke="rgb(51,51,51)" stroke-width="0.2"/>
  <path d="M 124.18152419465294,-91.63440486314542 L 116.09068820551886,-91.63440486314542 L 110.69679739925104,-91.63440486314542 L 101.02786479668325,-91.63440486314542 L 100.27055960775854,-115.58925743170278 C 109.70544810494344,-117.9202084970571 108.20442207359608,-125.86600591311938 106.86222007891524,-138.7794185829987 L 111.00954834297409,-140.42797179583945 A 21.437593902530917,21.437593902530917 0.0 0,0 124.18152419465294,-135.90396664592456 L 124.18152419465294,-91.63440486314542" fill="rgb(227,175,186)" stroke="rgb(51,51,51)" stroke-width="0.2"/>
  <path d="M 162.68152419465292,-43.7311936175072 L 130.05983951568118,-43.7311936175072 L 125.84709233670941,-43.7311936175072 Q 125.847084308392,-49.82986423410412 123.84709233670941,-51.9753236175072 Q 135.26966131216838,-51.975323126320355 135.26967419465294,-72.4133851175072 L 135.26967419465294,-86.6210236175072 L 142.1074991289551,-86.6210236175072 L 143.51115517533032,-66.00309240184421 L 144.91481122170558,-86.6210236175072 L 149.47336130201052,-86.6210236175072 L 150.87701734838572,-68.0749751593896 L 152.28067339476098,-86.6210236175072 L 160.45219838015387,-86.6210236175072 Q 162.681523989292,-73.75031728294034 162.68152419465292,-60.788953617507204 L 162.68152419465292,-43.7311936175072" fill="rgb(227,175,186)" stroke="rgb(51,51,51)" stroke-width="0.2"/>
  <path d="M 85.68152419465294,-43.7311936175072 L 85.68152419465294,-60.788953617507204 Q 85.68152440001387,-73.75031728294034 87.910850009152,-86.6210236175072 L 96.0823749945449,-86.6210236175072 L 97.48603104092014,-68.0749751593896 L 98.88968708729537,-86.6210236175072 L 103.44823716760031,-86.6210236175072 L 104.85189321397554,-66.00309240184421 L 106.25554926035078,-86.6210236175072 L 113.09337419465294,-86.6210236175072 L 113.09337419465294,-72.4133851175072 Q 113.09338707713748,-51.975323126320355 124.51595605259647,-51.9753236175072 Q 122.51596408091389,-49.82986423410412 122.51595605259647,-43.7311936175072 L 118.3032088736247,-43.7311936175072 L 85.68152419465294,-43.7311936175072" fill="rgb(227,175,186)" stroke="rgb(51,51,51)" stroke-width="0.2"/>
  <path d="M 158.0077760730888,-124.83088700735895 L 144.29319714113257,-111.3456066962832 L 140.78759284556725,-114.91081896526718 C 141.91629111152716,-123.24988196976477 133.862478655465,-131.66638993908157 142.6173902472684,-140.4829651497848 L 158.0077760730888,-124.83088700735895" fill="rgb(227,175,186)" stroke="rgb(51,51,51)" stroke-width="0.2"/>
  <path d="M 181.2722862919794,-31.37649760078547 L 116.97906220999621,-31.37649760078547 L 125.84709233670941,-39.905378617507196 L 172.40425616526622,-39.905378617507196 L 181.2722862919794,-31.37649760078547" fill="rgb(227,175,186)" stroke="rgb(51,51,51)" stroke-width="0.2"/>
  <path d="M 67.09076209732646,-31.37649760078547 L 75.95879222403966,-39.905378617507196 L 122.51595605259647,-39.905378617507196 L 131.38398617930966,-31.37649760078547 L 67.09076209732646,-31.37649760078547" fill="rgb(227,175,186)" stroke="rgb(51,51,51)" stroke-width="0.2"/>
  <path d="M 90.35527231621707,-124.83088700735895 L 105.74565814203748,-140.4829651497848 C 114.50056973384088,-131.66638993908157 106.44675727777872,-123.24988196976477 107.57545554373863,-114.91081896526718 L 104.06985124817331,-111.3456066962832 L 90.35527231621707,-124.83088700735895" fill="rgb(227,175,186)" stroke="rgb(51,51,51)" stroke-width="0.2"/>
  <path d="M 169.21503462319026,-125.47695325499296 L 149.35977846228116,-105.95366374632403 L 151.59693869537176,-115.72235247997439 L 159.41001779131494,-123.40480209976535 L 169.21503462319026,-125.47695325499296" fill="rgb(227,175,186)" stroke="rgb(51,51,51)" stroke-width="0.2"/>
  <path d="M 79.14801376611561,-125.47695325499296 L 88.95303059799093,-123.40480209976535 L 96.76610969393411,-115.72235247997439 L 99.00326992702472,-105.95366374632403 L 79.14801376611561,-125.47695325499296" fill="rgb(227,175,186)" stroke="rgb(51,51,51)" stroke-width="0.2"/>
</svg>
