<?xml version="1.0" encoding="utf-8" ?>
<svg xmlns="http://www.w3.org/2000/svg" xmlns:ev="http://www.w3.org/2001/xml-events" xmlns:xlink="http://www.w3.org/1999/xlink" baseProfile="full" height="132.06320863112762cm" version="1.1" viewBox="-39.49425966309798 -151.6638 163.9770386523919 132.06320863112762" width="163.9770386523919cm">
  <defs/>
  <path d="M 18.21927431289935,-145.6638 L 18.21927431289935,-149.6638 L 0.0,-149.6638 L 0.0,-145.6638 L 18.21927431289935,-145.6638" fill="rgb(227,175,186)" stroke="rgb(51,51,51)" stroke-width="0.2"/>
  <path d="M -18.21927431289935,-145.6638 L 0.0,-145.6638 L 0.0,-149.6638 L -18.21927431289935,-149.6638 L -18.21927431289935,-145.6638" fill="rgb(227,175,186)" stroke="rgb(51,51,51)" stroke-width="0.2"/>
  <path d="M 31.871817215639254,-129.10504524632324 L 21.25598663750562,-139.9013834041968 C 10.816480379993052,-129.57257895188013 14.362204129337645,-123.29831205138971 10.1711154886369,-114.77936998841878 L 14.206673587638434,-111.73525104841815 L 31.871817215639254,-129.10504524632324" fill="rgb(227,175,186)" stroke="rgb(51,51,51)" stroke-width="0.2"/>
  <path d="M -31.871817215639254,-129.10504524632324 L -14.206673587638434,-111.73525104841815 L -10.1711154886369,-114.77936998841878 C -14.362204129337648,-123.29831205138971 -10.816480379993052,-129.57257895188013 -21.25598663750562,-139.9013834041968 L -31.871817215639254,-129.10504524632324" fill="rgb(227,175,186)" stroke="rgb(51,51,51)" stroke-width="0.2"/>
  <path d="M 37.49425966309798,-126.3714019898124 L 33.27405893386538,-127.67896033872965 L 27.24642560079885,-121.75210501841165 L 28.482649404298094,-117.51045984955319 L 37.49425966309798,-126.3714019898124" fill="rgb(227,175,186)" stroke="rgb(51,51,51)" stroke-width="0.2"/>
  <path d="M -37.49425966309798,-126.3714019898124 L -28.482649404298098,-117.51045984955319 L -27.246425600798855,-121.75210501841165 L -33.27405893386538,-127.67896033872965 L -37.49425966309798,-126.3714019898124" fill="rgb(227,175,186)" stroke="rgb(51,51,51)" stroke-width="0.2"/>
  <path d="M 31.908157291835543,-23.94896136887239 Q 30.704080925226872,-60.29452419146841 30.70407864591777,-72.39300135495829 Q 30.704060233730385,-84.16430807784215 28.975928645917772,-95.87670135495829 L 14.728110026421174,-95.87670135495829 L 6.376928645917776,-95.87670135495829 L 6.376928645917776,-82.96066635495828 Q 6.376892465350096,-63.57936845847489 0.2951411459177784,-63.57937135495828 Q 1.9346774645915943,-51.71525097830605 1.0910625000000067,-23.94896136887239 L 31.908157291835543,-23.94896136887239" fill="rgb(227,175,186)" stroke="rgb(51,51,51)" stroke-width="0.2"/>
  <path d="M -31.908157291835543,-23.94896136887239 L -1.0910625000000067,-23.94896136887239 Q -1.9346774645915978,-51.71525097830605 -0.2951411459177784,-63.57937135495828 Q -6.3768924653500925,-63.57936845847489 -6.376928645917776,-82.96066635495828 L -6.376928645917776,-95.87670135495829 L -14.905527539484346,-95.87670135495829 L -28.975928645917772,-95.87670135495829 Q -30.704060233730385,-84.16430807784215 -30.70407864591777,-72.39300135495829 Q -30.704080925226876,-60.29452419146841 -31.908157291835543,-23.94896136887239" fill="rgb(227,175,186)" stroke="rgb(51,51,51)" stroke-width="0.2"/>
  <path d="M 0.0,-97.85775552378857 L 8.473150131373654,-97.85775552378857 L 9.634250131373655,-110.61550785797345 L 10.795350131373658,-97.85775552378857 L 24.921200000000002,-97.85775552378857 L 26.082300000000004,-112.09162216584858 L 13.003468750843743,-113.92612216584857 L 26.082300000000004,-115.76062216584856 L 26.034325788340276,-115.89902124192287 C 16.304853384153624,-117.34121080947567 16.940266300033628,-125.41796513876153 17.064698421035946,-138.44860942235465 C 17.066062942436627,-138.59150333789992 17.06736601689559,-138.7349929732655 17.068593302489553,-138.8790761121581 L 10.818799919390678,-141.36335338013257 A 10.877711079906847,10.877711079906847 0.0 0,1 0.0,-129.35508197803108 L 0.0,-97.85775552378857" fill="rgb(227,175,186)" stroke="rgb(51,51,51)" stroke-width="0.2"/>
  <path d="M 0.0,-97.85775552378857 L 0.0,-129.35508197803108 A 10.877711079906847,10.877711079906847 0.0 0,1 -10.818799919390678,-141.36335338013257 L -17.068593302489553,-138.8790761121581 C -17.06736601689559,-138.7349929732655 -17.066062942436627,-138.59150333789992 -17.064698421035946,-138.44860942235465 C -16.940266300033624,-125.41796513876153 -16.304853384153628,-117.34121080947568 -26.034325788340276,-115.89902124192287 L -26.082300000000004,-115.76062216584856 L -13.003468750843743,-113.92612216584857 L -26.082300000000004,-112.09162216584858 L -24.921200000000002,-97.85775552378857 L -10.795350131373658,-97.85775552378857 L -9.634250131373655,-110.61550785797345 L -8.473150131373654,-97.85775552378857 L 0.0,-97.85775552378857" fill="rgb(227,175,186)" stroke="rgb(51,51,51)" stroke-width="0.2"/>
  <path d="M 84.98851932619596,-104.26453884846742 L 84.98851932619596,-136.55712512344243 A 13.896131572432509,13.896131572432509 0.0 0,0 95.80731924558664,-141.7322452303081 L 102.21691932619595,-139.18444457043864 C 100.92573335214891,-126.37248713532104 99.46162012161362,-118.48702317425047 108.82656932619595,-116.20438970020342 L 108.82656932619595,-116.12951385279466 L 108.11487765952928,-101.895647186128 Q 104.02038478592422,-102.77205311148182 99.90523685095343,-103.34064690733337 L 100.2713009515983,-114.13808342153325 L 98.13803239515259,-103.54715317579762 Q 95.87045084131252,-103.79529678647395 93.59828565456964,-103.95760755331005 L 93.4754527877181,-115.96102357914361 L 91.8226928240848,-104.07130244258923 Q 88.41076566783124,-104.26453888028195 84.98851932619596,-104.26453884846742" fill="rgb(227,175,186)" stroke="rgb(51,51,51)" stroke-width="0.2"/>
  <path d="M 84.98851932619596,-104.26453884846742 Q 81.56627298456067,-104.26453888028195 78.1543458283071,-104.07130244258923 L 76.50158586467381,-115.96102357914361 L 76.37875299782228,-103.95760755331005 Q 74.1065878110794,-103.79529678647395 71.83900625723932,-103.54715317579762 L 69.7057377007936,-114.13808342153325 L 70.07180180143848,-103.34064690733337 Q 65.95665386646769,-102.77205311148182 61.86216099286263,-101.895647186128 L 61.15046932619596,-116.12951385279466 L 61.15046932619596,-116.20438970020342 C 70.51541853077829,-118.48702317425047 69.051305300243,-126.37248713532104 67.76011932619596,-139.18444457043864 L 74.16971940680527,-141.7322452303081 A 13.896131572432509,13.896131572432509 0.0 0,0 84.98851932619596,-136.55712512344243 L 84.98851932619596,-104.26453884846742" fill="rgb(227,175,186)" stroke="rgb(51,51,51)" stroke-width="0.2"/>
  <path d="M 121.8966766180315,-21.600591368872387 L 86.02031246825243,-21.600591368872387 Q 86.86392743285734,-49.36688097874286 85.2243911141702,-61.23100135495828 Q 93.28067907599694,-61.231004576261675 93.28074797211373,-81.66906285495828 L 93.28074797211373,-95.87670135495829 L 100.11857290631637,-95.87670135495829 L 101.5222289526916,-75.2587701392953 L 102.92588499906684,-95.87670135495829 L 107.4844350794713,-95.87670135495829 L 108.88809112584653,-77.33065289684068 L 110.29174717222176,-95.87670135495829 L 118.46327215761467,-95.87670135495829 Q 120.69259776675281,-83.0059950189038 120.69259797211373,-70.04463135495828 Q 120.69260025142285,-57.94615419146841 121.8966766180315,-21.600591368872387" fill="rgb(227,175,186)" stroke="rgb(51,51,51)" stroke-width="0.2"/>
  <path d="M 48.080362034360405,-21.600591368872387 Q 49.28443840096908,-57.94615419146841 49.28444068027818,-70.04463135495828 Q 49.284440885639114,-83.0059950189038 51.513766494777244,-95.87670135495829 L 59.68529148017015,-95.87670135495829 L 61.08894752654538,-77.33065289684068 L 62.492603572920615,-95.87670135495829 L 67.05115365332507,-95.87670135495829 L 68.4548096997003,-75.2587701392953 L 69.85846574607554,-95.87670135495829 L 76.69629068027818,-95.87670135495829 L 76.69629068027818,-81.66906285495828 Q 76.69635957639497,-61.231004576261675 84.75264753822171,-61.23100135495828 Q 83.11311121953457,-49.366880978742856 83.95672618413948,-21.600591368872387 L 48.080362034360405,-21.600591368872387" fill="rgb(227,175,186)" stroke="rgb(51,51,51)" stroke-width="0.2"/>
  <path d="M 116.86033654183521,-129.10504524632324 L 99.1951929138344,-111.73525104841815 L 95.15963481483286,-114.7793699884188 C 99.14630581468374,-123.15574318951107 95.87218013039816,-129.58871425409308 105.93260045693805,-139.58748277858004 C 106.03698630846537,-139.6935198050537 106.14095267244065,-139.7981461580324 106.24450596370158,-139.9013834041968 L 116.86033654183521,-129.10504524632324" fill="rgb(227,175,186)" stroke="rgb(51,51,51)" stroke-width="0.2"/>
  <path d="M 53.1167021105567,-129.10504524632324 L 63.732532688690334,-139.9013834041968 C 63.836085979951264,-139.7981461580324 63.940052343926546,-139.6935198050537 64.04443819545386,-139.58748277858004 C 74.10485852199375,-129.58871425409308 70.83073283770817,-123.15574318951107 74.81740383755906,-114.7793699884188 L 70.78184573855751,-111.73525104841815 L 53.1167021105567,-129.10504524632324" fill="rgb(227,175,186)" stroke="rgb(51,51,51)" stroke-width="0.2"/>
  <path d="M 122.48277898929393,-126.3714019898124 L 113.47116873049404,-117.51045984955319 L 112.23494492699481,-121.75210501841165 L 118.26257826006133,-127.67896033872965 L 122.48277898929393,-126.3714019898124" fill="rgb(227,175,186)" stroke="rgb(51,51,51)" stroke-width="0.2"/>
  <path d="M 47.49425966309798,-126.3714019898124 L 51.71446039233057,-127.67896033872965 L 57.7420937253971,-121.75210501841165 L 56.505869921897855,-117.51045984955319 L 47.49425966309798,-126.3714019898124" fill="rgb(227,175,186)" stroke="rgb(51,51,51)" stroke-width="0.2"/>
  <path d="M 97.38870761825928,-145.6638 L 84.98851932619596,-145.6638 L 84.98851932619596,-149.6638 L 97.38870761825928,-149.6638 L 97.38870761825928,-145.6638" fill="rgb(227,175,186)" stroke="rgb(51,51,51)" stroke-width="0.2"/>
  <path d="M 72.58833103413264,-145.6638 L 72.58833103413264,-149.6638 L 84.98851932619596,-149.6638 L 84.98851932619596,-145.6638 L 72.58833103413264,-145.6638" fill="rgb(227,175,186)" stroke="rgb(51,51,51)" stroke-width="0.2"/>
</svg>
