<?xml version="1.0" encoding="utf-8" ?>
<svg xmlns="http://www.w3.org/2000/svg" xmlns:ev="http://www.w3.org/2001/xml-events" xmlns:xlink="http://www.w3.org/1999/xlink" baseProfile="full" height="145.7706263709583cm" version="1.1" viewBox="-90.08902740478516 -151.66380310058594 363.089111328125 145.7706263709583" width="363.089111328125cm">
  <defs/>
  <path d="M 18.219274520874023,-145.66380310058594 L 18.219274520874023,-149.66380310058594 L 0.0,-149.66380310058594 L 0.0,-145.66380310058594 L 18.219274520874023,-145.66380310058594" fill="rgb(227,175,186)" stroke="rgb(51,51,51)" stroke-width="0.2"/>
  <path d="M -18.219274520874023,-145.66380310058594 L 0.0,-145.66380310058594 L 0.0,-149.66380310058594 L -18.219274520874023,-149.66380310058594 L -18.219274520874023,-145.66380310058594" fill="rgb(227,175,186)" stroke="rgb(51,51,51)" stroke-width="0.2"/>
  <path d="M -18.633498787879944,-100.67436981201172 L -88.08902740478516,-54.89427947998047 A 104.52471923828125,104.52471923828125 0.0 0,0 86.45552825927734,-54.89427947998047 L 17.0,-100.67436981201172 A 21.338857650756836,21.338857650756836 0.0 0,1 6.802425384521484,-92.48563003540039 A 21.338857650756836,21.338857650756836 0.0 0,1 -0.8995094299316406,-91.07919406890869 A 21.338857650756836,21.338857650756836 0.0 0,1 -8.590302467346191,-92.5453290939331 A 21.338857650756836,21.338857650756836 0.0 0,1 -18.633498787879944,-100.67436981201172" fill="rgb(227,175,186)" stroke="rgb(51,51,51)" stroke-width="0.2"/>
  <path d="M 0.0,-97.85775756835938 L 8.473150253295898,-97.85775756835938 L 9.634249687194824,-110.61550998687744 L 10.795350074768066,-97.85775756835938 L 24.921199798583984,-97.85775756835938 L 26.082300186157227,-112.09162425994873 L 13.00346851348877,-113.9261245727539 L 26.082300186157227,-115.76062393188477 L 26.034326553344727,-115.89902305603027 C 16.30232293183542,-117.3415871265941 16.94059766255708,-125.42216918982479 17.064794540405273,-138.45878219604492 C 17.066124356420225,-138.59831371194798 17.067395284340776,-138.7384129742426 17.068593978881836,-138.87907791137695 L 10.81879997253418,-141.36335372924805 A 10.877711296081543,10.877711296081543 0.0 0,1 0.0,-129.35508346557617 L 0.0,-97.85775756835938" fill="rgb(227,175,186)" stroke="rgb(51,51,51)" stroke-width="0.2"/>
  <path d="M 0.0,-97.85775756835938 L 0.0,-129.35508346557617 A 10.877711296081543,10.877711296081543 0.0 0,1 -10.81879997253418,-141.36335372924805 L -17.068593978881836,-138.87907791137695 C -17.067395284340776,-138.7384129742426 -17.066124356533457,-138.59831372447377 -17.064794540405273,-138.45878219604492 C -16.94059766255708,-125.42216918982479 -16.302322664522535,-117.34158779892732 -26.034326553344727,-115.89902305603027 L -26.082300186157227,-115.76062393188477 L -13.00346851348877,-113.9261245727539 L -26.082300186157227,-112.09162425994873 L -24.921199798583984,-97.85775756835938 L -10.795350074768066,-97.85775756835938 L -9.634249687194824,-110.61550998687744 L -8.473150253295898,-97.85775756835938 L 0.0,-97.85775756835938" fill="rgb(227,175,186)" stroke="rgb(51,51,51)" stroke-width="0.2"/>
  <path d="M 184.5445556640625,-104.26453679800034 L 184.5445556640625,-136.55712127685547 A 13.89613151550293,13.89613151550293 0.0 0,0 195.36335563659668,-141.73224258422852 L 201.7729549407959,-139.18444442749023 C 200.4817693025468,-126.37248571333393 199.01765654205894,-118.48702073484384 208.38260650634766,-116.20438766479492 L 208.38260650634766,-116.12951183319092 L 207.67091369628906,-101.89564514160156 Q 203.57642107823472,-102.77205103614469 199.46127319335938,-103.34064483642578 L 199.82733726501465,-114.13808155059814 L 197.6940689086914,-103.54715111851692 Q 195.42648698856726,-103.79529475099352 193.15432167053223,-103.9576055072248 L 193.03148937225342,-115.96102142333984 L 191.3787293434143,-104.07130040228367 Q 187.96680208592767,-104.26453683738438 184.5445556640625,-104.26453679800034" fill="rgb(227,175,186)" stroke="rgb(51,51,51)" stroke-width="0.2"/>
  <path d="M 184.5445556640625,-104.26453679800034 Q 181.12230924219733,-104.26453683738438 177.7103819847107,-104.07130040228367 L 176.05762195587158,-115.96102142333984 L 175.93478965759277,-103.9576055072248 Q 173.66262420426273,-103.79529473876103 171.3950424194336,-103.54715111851692 L 169.26177406311035,-114.13808155059814 L 169.62783813476562,-103.34064483642578 Q 165.51269024989028,-102.77205103614469 161.41819763183594,-101.89564514160156 L 160.70650482177734,-116.12951183319092 L 160.70650482177734,-116.20438766479492 C 170.07145488455754,-118.48702107727337 168.6073420255782,-126.37248571333393 167.3161563873291,-139.18444442749023 L 173.72575569152832,-141.73224258422852 A 13.89613151550293,13.89613151550293 0.0 0,0 184.5445556640625,-136.55712127685547 L 184.5445556640625,-104.26453679800034" fill="rgb(227,175,186)" stroke="rgb(51,51,51)" stroke-width="0.2"/>
  <path d="M 165.91105687618256,-100.67436981201172 A 21.338857650756836,21.338857650756836 0.0 0,0 172.23618984222412,-94.43763494491577 A 21.338857650756836,21.338857650756836 0.0 0,0 176.6231689453125,-92.29648494720459 A 21.338857650756836,21.338857650756836 0.0 0,0 183.82338523864746,-91.07924747467041 A 21.338857650756836,21.338857650756836 0.0 0,0 191.01240921020508,-92.36093616485596 A 21.338857650756836,21.338857650756836 0.0 0,0 195.38002967834473,-94.54129981994629 A 21.338857650756836,21.338857650756836 0.0 0,0 201.5445556640625,-100.67436981201172 L 271.00008392333984,-54.89427947998047 A 104.52471923828125,104.52471923828125 0.0 0,1 96.45552825927734,-54.89427947998047 L 165.91105687618256,-100.67436981201172" fill="rgb(227,175,186)" stroke="rgb(51,51,51)" stroke-width="0.2"/>
  <path d="M 196.94474411010742,-145.66380310058594 L 184.5445556640625,-145.66380310058594 L 184.5445556640625,-149.66380310058594 L 196.94474411010742,-149.66380310058594 L 196.94474411010742,-145.66380310058594" fill="rgb(227,175,186)" stroke="rgb(51,51,51)" stroke-width="0.2"/>
  <path d="M 172.14436721801758,-145.66380310058594 L 172.14436721801758,-149.66380310058594 L 184.5445556640625,-149.66380310058594 L 184.5445556640625,-145.66380310058594 L 172.14436721801758,-145.66380310058594" fill="rgb(227,175,186)" stroke="rgb(51,51,51)" stroke-width="0.2"/>
</svg>
