<?xml version="1.0" encoding="utf-8" ?>
<svg xmlns="http://www.w3.org/2000/svg" xmlns:ev="http://www.w3.org/2001/xml-events" xmlns:xlink="http://www.w3.org/1999/xlink" baseProfile="full" height="164.53155531096365cm" version="1.1" viewBox="-55.7605071954315 -142.83180567174625 290.51201194198194 164.53155531096365" width="290.51201194198194cm">
  <defs/>
  <path d="M 56.315244627947195,19.699749639217387 A 25.597064184081134,25.597064184081134 0.0 0,1 84.49549877555947,19.699749639217387 L 73.91928003508667,-80.5438734109478 L 69.92256336841999,-80.5438734109478 L 66.89146336841999,-80.5438734109478 L 56.315244627947195,19.699749639217387" fill="rgb(227,175,186)" stroke="rgb(51,51,51)" stroke-width="0.2"/>
  <path d="M -22.598999999999997,-85.54387341094781 L -15.571183333333327,-85.54387341094781 L -8.543366666666657,-85.54387341094781 L -1.5155499999999975,-85.54387341094781 L 5.512266666666672,-85.54387341094781 L 12.540083333333342,-85.54387341094781 L 19.567900000000016,-85.54387341094781 L 22.598999999999997,-85.54387341094781 L 22.598999999999997,-95.8767013549583 L 8.351181380503387,-95.8767013549583 L -0.08870875653159516,-95.8767013549583 L -8.528598893566578,-95.8767013549583 L -22.598999999999997,-95.8767013549583 L -22.598999999999997,-85.54387341094781" fill="rgb(227,175,186)" stroke="rgb(51,51,51)" stroke-width="0.2"/>
  <path d="M -53.7605071954315,19.699749639217416 A 25.597064184081134,25.597064184081134 0.0 0,1 -25.58025304781923,19.699749639217416 L -36.15647178829203,-80.54387341094777 L -43.1842884549587,-80.54387341094777 L -53.7605071954315,19.699749639217416" fill="rgb(227,175,186)" stroke="rgb(51,51,51)" stroke-width="0.2"/>
  <path d="M 0.0,-97.85775552378857 L 8.473150131373654,-97.85775552378857 L 9.634250131373655,-110.61550785797345 L 10.795350131373658,-97.85775552378857 L 24.921200000000002,-97.85775552378857 L 26.082300000000004,-112.09162216584856 L 13.003468750843743,-113.92612216584855 L 26.082300000000004,-115.76062216584856 L 24.46108879114451,-120.43759601626539 C 16.52807168085635,-121.53851861047355 17.07654504633905,-128.17983694490715 17.06859331985356,-138.8790760620653 L 13.084070580387115,-140.46291377076508 A 12.353727694932584,12.353727694932584 0.0 0,1 0.0,-129.35508192337147 L 0.0,-97.85775552378857" fill="rgb(227,175,186)" stroke="rgb(51,51,51)" stroke-width="0.2"/>
  <path d="M 0.0,-97.85775552378857 L 0.0,-129.35508192337147 A 12.353727694932584,12.353727694932584 0.0 0,1 -13.084070580387115,-140.46291377076508 L -17.06859331985356,-138.8790760620653 C -17.07654504633905,-128.17983694490715 -16.52807168085635,-121.53851861047355 -24.46108879114451,-120.43759601626539 L -26.082300000000004,-115.76062216584856 L -13.003468750843743,-113.92612216584855 L -26.082300000000004,-112.09162216584856 L -24.921200000000002,-97.85775552378857 L -10.795350131373658,-97.85775552378857 L -9.634250131373655,-110.61550785797345 L -8.473150131373654,-97.85775552378857 L 0.0,-97.85775552378857" fill="rgb(227,175,186)" stroke="rgb(51,51,51)" stroke-width="0.2"/>
  <path d="M 43.78035774084332,19.699749639217416 A 25.597064184081134,25.597064184081134 0.0 0,1 71.96061188845559,19.699749639217416 L 61.38439314798279,-80.54387341094777 L 54.356576481316125,-80.54387341094777 L 43.78035774084332,19.699749639217416" fill="rgb(227,175,186)" stroke="rgb(51,51,51)" stroke-width="0.2"/>
  <path d="M -36.80068527521237,19.699749639217416 A 25.597064184081134,25.597064184081134 0.0 0,1 -8.620431127600103,19.699749639217416 L -19.196649868072903,-80.54387341094777 L -26.22446653473957,-80.54387341094777 L -36.80068527521237,19.699749639217416" fill="rgb(227,175,186)" stroke="rgb(51,51,51)" stroke-width="0.2"/>
  <path d="M 19.514559352734814,19.699749639217387 A 25.597064184081134,25.597064184081134 0.0 0,1 47.69481350034708,19.699749639217387 L 37.118594759874284,-80.5438734109478 L 30.090778093207618,-80.5438734109478 L 19.514559352734814,19.699749639217387" fill="rgb(227,175,186)" stroke="rgb(51,51,51)" stroke-width="0.2"/>
  <path d="M -9.980149454588185,19.699749639217373 A 25.597064184081134,25.597064184081134 0.0 0,1 18.200104693024088,19.699749639217373 L 7.623885952551285,-80.54387341094781 L 0.5960692858846173,-80.54387341094781 L -9.980149454588185,19.699749639217373" fill="rgb(227,175,186)" stroke="rgb(51,51,51)" stroke-width="0.2"/>
  <path d="M 160.79089285809488,19.699749639217416 A 25.597064184081134,25.597064184081134 0.0 0,1 188.97114700570714,19.699749639217416 L 178.39492826523434,-80.54387341094777 L 171.36711159856767,-80.54387341094777 L 160.79089285809488,19.699749639217416" fill="rgb(227,175,186)" stroke="rgb(51,51,51)" stroke-width="0.2"/>
  <path d="M 131.29618405077187,19.699749639217387 A 25.597064184081134,25.597064184081134 0.0 0,1 159.47643819838413,19.699749639217387 L 148.90021945791133,-80.5438734109478 L 141.87240279124467,-80.5438734109478 L 131.29618405077187,19.699749639217387" fill="rgb(227,175,186)" stroke="rgb(51,51,51)" stroke-width="0.2"/>
  <path d="M 187.61142867871905,19.699749639217416 A 25.597064184081134,25.597064184081134 0.0 0,1 215.79168282633134,19.699749639217416 L 205.21546408585854,-80.54387341094777 L 198.18764741919188,-80.54387341094777 L 187.61142867871905,19.699749639217416" fill="rgb(227,175,186)" stroke="rgb(51,51,51)" stroke-width="0.2"/>
  <path d="M 107.03038566266335,19.699749639217387 A 25.597064184081134,25.597064184081134 0.0 0,1 135.2106398102756,19.699749639217387 L 124.63442106980281,-80.5438734109478 L 117.60660440313615,-80.5438734109478 L 107.03038566266335,19.699749639217387" fill="rgb(227,175,186)" stroke="rgb(51,51,51)" stroke-width="0.2"/>
  <path d="M 150.81074340350665,-104.26453884846742 L 150.81074340350665,-127.6300965267059 A 13.084594710700136,13.084594710700136 0.0 0,0 163.89481398389373,-140.83180567174625 L 168.03914340350664,-139.18444457807914 C 167.65567239434665,-128.64177455517915 166.87234538747668,-122.1178830414392 174.64879340350666,-120.74296453227922 L 174.64879340350666,-116.12951385279466 L 173.93710173684,-101.895647186128 Q 169.84260886323491,-102.77205311148182 165.72746092826412,-103.34064690733337 L 166.093525028909,-114.13808342153325 L 163.96025647246327,-103.54715317579762 Q 161.69267491862317,-103.79529678647398 159.42050973188023,-103.95760755331005 L 159.29767686502862,-115.96102357914364 L 157.6449169013954,-104.07130244258924 Q 154.23298974514188,-104.26453888028195 150.81074340350665,-104.26453884846742" fill="rgb(227,175,186)" stroke="rgb(51,51,51)" stroke-width="0.2"/>
  <path d="M 150.81074340350665,-104.26453884846742 Q 147.38849706187142,-104.26453888028195 143.9765699056179,-104.07130244258924 L 142.32380994198468,-115.96102357914364 L 142.20097707513307,-103.95760755331005 Q 139.92881188839013,-103.79529678647398 137.66123033455003,-103.54715317579762 L 135.5279617781043,-114.13808342153325 L 135.89402587874918,-103.34064690733337 Q 131.77887794377838,-102.77205311148182 127.68438507017332,-101.895647186128 L 126.97269340350665,-116.12951385279466 L 126.97269340350665,-120.74296453227922 C 134.7491414195366,-122.1178830414392 133.96581441266665,-128.64177455517915 133.58234340350666,-139.18444457807914 L 137.72667282311957,-140.83180567174625 A 13.084594710700136,13.084594710700136 0.0 0,0 150.81074340350665,-127.6300965267059 L 150.81074340350665,-104.26453884846742" fill="rgb(227,175,186)" stroke="rgb(51,51,51)" stroke-width="0.2"/>
  <path d="M 204.57125059893818,19.699749639217387 A 25.597064184081134,25.597064184081134 0.0 0,1 232.75150474655044,19.699749639217387 L 222.17528600607764,-80.5438734109478 L 215.14746933941097,-80.5438734109478 L 204.57125059893818,19.699749639217387" fill="rgb(227,175,186)" stroke="rgb(51,51,51)" stroke-width="0.2"/>
  <path d="M 131.24284340350664,-85.54387341094781 L 131.24284340350664,-95.8767013549583 L 139.5478356570247,-95.8767013549583 L 144.0884759056839,-95.8767013549583 L 150.89945216003824,-95.8767013549583 L 157.71042841439254,-95.8767013549583 L 162.25106866305177,-95.8767013549583 L 170.37864340350666,-95.8767013549583 L 170.37864340350666,-85.54387341094781 L 166.38192673683997,-85.54387341094781 L 159.3541100701733,-85.54387341094781 L 152.3262934035066,-85.54387341094781 L 145.29847673683997,-85.54387341094781 L 138.27066007017328,-85.54387341094781 L 131.24284340350664,-85.54387341094781" fill="rgb(227,175,186)" stroke="rgb(51,51,51)" stroke-width="0.2"/>
  <path d="M 94.49549877555945,19.699749639217387 A 25.597064184081134,25.597064184081134 0.0 0,1 122.67575292317173,19.699749639217387 L 112.09953418269893,-80.5438734109478 L 105.07171751603227,-80.5438734109478 L 94.49549877555945,19.699749639217387" fill="rgb(227,175,186)" stroke="rgb(51,51,51)" stroke-width="0.2"/>
</svg>
