<?xml version="1.0" encoding="utf-8"?>
<!-- Generator: Adobe Illustrator 23.0.1, SVG Export Plug-In . SVG Version: 6.00 Build 0)  -->
<svg version="1.1" id="Livello_1" xmlns="http://www.w3.org/2000/svg" xmlns:xlink="http://www.w3.org/1999/xlink" x="0px" y="0px"
	 viewBox="0 0 206.92 41.03" style="enable-background:new 0 0 206.92 41.03;" xml:space="preserve">
<style type="text/css">
	.st0{fill:#1D1D1B;}
	.st1{fill:#FFFFFF;}
	.st2{fill:#003F78;}
	.st3{fill:#0067AB;}
	.st4{fill:#7D8386;}
</style>
<g id="XMLID_88_">
	<g id="XMLID_92_">
		<path id="XMLID_114_" class="st2" d="M43.88,20.58c0-3.09-3.09-3.77-5.61-3.77c-1.52,0-2.95,0.32-4.44,0.96
			c-0.41,0.18-0.9,0.03-1.1-0.37l-0.59-1.14c-0.23-0.45-0.03-1.02,0.45-1.19c2.42-0.89,4.36-1.09,5.87-1.09
			c4.49,0,8.66,1.91,8.66,6.36v11.95c0,0.47-0.38,0.85-0.85,0.85h-2.17v-2.01c-1.65,1.73-3.49,2.44-5.97,2.44
			c-4.57,0-8.16-2.55-8.16-6.72c0-3.42,2.91-6.44,8.13-6.44c1.98,0,4.06,0.57,5.79,2.12V20.58z M38.7,23.24
			c-3.96,0-5.29,1.91-5.29,3.74c0,1.83,1.33,3.74,5.29,3.74s5.29-1.91,5.29-3.74C43.98,25.14,42.65,23.24,38.7,23.24z"/>
		<path id="XMLID_111_" class="st2" d="M52.99,5.8h1.53c0.47,0,0.85,0.38,0.85,0.85v10.69h0.07c1.55-2.23,4.35-3.38,7.12-3.38
			c5.29,0,9.74,4.21,9.74,9.6c0,5.9-4.67,9.99-9.89,9.99c-3.24,0-5.61-1.37-6.97-3.31h-0.07v2.02c0,0.47-0.38,0.85-0.85,0.85h-1.53
			c-0.47,0-0.85-0.38-0.85-0.85V6.65C52.14,6.18,52.52,5.8,52.99,5.8z M61.99,16.98c-3.52,0-6.62,3.02-6.62,6.8
			c0,3.74,3.02,6.76,6.72,6.76c3.41,0,6.76-2.63,6.76-6.94C68.86,20.47,66.38,16.98,61.99,16.98z"/>
		<path id="XMLID_108_" class="st2" d="M93.58,28.91c0.39,0.31,0.44,0.91,0.09,1.26c-2.33,2.33-4.81,3.38-7.81,3.38
			c-6.65,0-10.21-4.82-10.21-9.81c0-5.32,3.81-9.78,9.67-9.78c5.53,0,9.45,4.03,9.79,10.15C95.14,24.6,94.74,25,94.26,25H80.2
			c-0.58,0-1,0.58-0.82,1.13c0.88,2.6,3.26,4.41,6.45,4.41c2.06,0,3.92-0.86,5.47-2.44c0.31-0.32,0.8-0.37,1.15-0.09L93.58,28.91z
			 M90.43,22.34c0.57,0,0.99-0.55,0.83-1.1c-0.74-2.52-3.04-4.26-5.97-4.26c-3.4,0-5.28,2.07-5.95,4.27
			c-0.16,0.54,0.26,1.08,0.83,1.08H90.43z"/>
		<path id="XMLID_106_" class="st2" d="M101.33,5.8c0.47,0,0.85,0.38,0.85,0.85v20.61c0,2.12,1.04,2.84,2.09,2.84h0.97v3.02h-1.33
			c-2.98,0-4.96-1.69-4.96-5.61V6.65c0-0.47,0.38-0.85,0.85-0.85H101.33z"/>
		<path id="XMLID_104_" class="st2" d="M109.02,27.66c0.37,0,0.73,0.22,0.82,0.57c0.45,1.64,2,2.48,3.78,2.48
			c2.91,0,3.7-1.58,3.7-2.7c0-1.22-0.79-1.98-3.31-2.66l-3.27-0.9c-2.77-0.75-3.81-2.59-3.81-4.82c0-3.09,2.34-5.68,6.69-5.68
			c4.23,0,6.01,2.36,6.37,4.84c0.07,0.52-0.33,0.98-0.85,0.98h-1.42c-0.39,0-0.7-0.29-0.79-0.67c-0.39-1.67-1.45-2.5-3.37-2.5
			c-2.05,0-3.38,1.22-3.38,2.7c0,1.04,0.57,1.83,2.09,2.27l4.38,1.26c2.95,0.86,3.92,2.48,3.92,4.89c0,3.81-3.34,5.82-6.8,5.82
			c-3.95,0-6.42-1.9-6.94-4.88c-0.09-0.53,0.31-1.02,0.84-1.02H109.02z"/>
		<path id="XMLID_102_" class="st2" d="M138.12,18.2c-0.31,0.36-0.83,0.38-1.21,0.09c-1.12-0.88-2.35-1.3-3.7-1.3
			c-3.2,0-6.18,2.34-6.18,6.94c0,3.81,2.77,6.62,6.51,6.62c1.27,0,2.53-0.59,3.55-1.38c0.36-0.28,0.88-0.21,1.17,0.15l0.86,1.07
			c0.28,0.35,0.26,0.88-0.09,1.17c-1.63,1.36-3.74,2.01-5.88,2.01c-5.75,0-9.56-4.57-9.56-9.74c0-5.36,4.21-9.85,9.6-9.85
			c2.37,0,4.43,0.82,5.83,1.76c0.42,0.28,0.49,0.88,0.16,1.26L138.12,18.2z"/>
		<path id="XMLID_99_" class="st2" d="M155.68,20.58c0-3.09-3.09-3.77-5.61-3.77c-1.52,0-2.95,0.32-4.44,0.96
			c-0.41,0.18-0.9,0.03-1.1-0.37l-0.59-1.14c-0.23-0.45-0.03-1.02,0.45-1.19c2.42-0.89,4.36-1.09,5.87-1.09
			c4.49,0,8.66,1.91,8.66,6.36v11.95c0,0.47-0.38,0.85-0.85,0.85h-2.17v-2.01c-1.65,1.73-3.49,2.44-5.97,2.44
			c-4.57,0-8.16-2.55-8.16-6.72c0-3.42,2.91-6.44,8.12-6.44c1.98,0,4.06,0.57,5.79,2.12V20.58z M150.5,23.24
			c-3.96,0-5.29,1.91-5.29,3.74c0,1.83,1.33,3.74,5.29,3.74s5.29-1.91,5.29-3.74C155.78,25.14,154.45,23.24,150.5,23.24z"/>
		<path id="XMLID_96_" class="st2" d="M164.79,14.39h1.53c0.47,0,0.85,0.38,0.85,0.85v2.1h0.07c1.55-2.23,4.35-3.38,7.12-3.38
			c5.29,0,9.74,4.21,9.74,9.6c0,5.9-4.67,9.99-9.89,9.99c-3.24,0-5.61-1.37-6.97-3.31h-0.07v9.93c0,0.47-0.38,0.85-0.85,0.85h-1.53
			c-0.47,0-0.85-0.38-0.85-0.85V15.24C163.94,14.77,164.32,14.39,164.79,14.39z M173.79,16.98c-3.52,0-6.62,3.02-6.62,6.8
			c0,3.74,3.02,6.76,6.72,6.76c3.42,0,6.76-2.63,6.76-6.94C180.66,20.47,178.18,16.98,173.79,16.98z"/>
		<path id="XMLID_93_" class="st2" d="M205.38,28.91c0.39,0.31,0.44,0.91,0.09,1.26c-2.33,2.33-4.81,3.38-7.81,3.38
			c-6.65,0-10.21-4.82-10.21-9.81c0-5.32,3.81-9.78,9.67-9.78c5.53,0,9.45,4.03,9.79,10.15c0.03,0.48-0.37,0.88-0.86,0.88H192
			c-0.58,0-1,0.58-0.82,1.13c0.88,2.6,3.26,4.41,6.45,4.41c2.06,0,3.92-0.86,5.47-2.44c0.31-0.32,0.8-0.37,1.15-0.09L205.38,28.91z
			 M202.23,22.34c0.57,0,0.99-0.55,0.83-1.1c-0.74-2.52-3.04-4.26-5.97-4.26c-3.4,0-5.28,2.07-5.95,4.27
			c-0.16,0.54,0.26,1.08,0.83,1.08H202.23z"/>
	</g>
	<g id="XMLID_89_">
		<path id="XMLID_91_" class="st2" d="M1.35,0c0,0,10.87,0,12.2,0c3.13,0,7.9,1.71,8.34,5.79c0.09,0.82,0.07,2.17-0.52,3.51
			c-0.6,1.37-1.8,2.72-3.49,3.49c-1.09,0.5-5.47,1.74-9.54,4.24C6.32,18.27,0,23.29,0,28.81c0,0,0-26.21,0-27.54
			C0,0.37,0.25,0,1.35,0z"/>
		<path id="XMLID_90_" class="st3" d="M5.53,22.2c1.23-1.05,2.5-2.01,3.78-2.85c4.22-2.77,8.47-4.28,11.05-3.96
			c1.78,0.22,3.71,1.53,4.78,3.33c0.85,1.42,1.15,2.89,1.21,4.04c0.21,3.87-1.42,6.38-3.08,7.77c-1.84,1.53-4.35,2.56-7.24,2.56
			c-1.6,0-14.1-0.01-14.86-0.01c-0.59,0-1.07-0.39-1.07-1.05C0.11,31.37,0.97,26.12,5.53,22.2z"/>
	</g>
</g>
</svg>
